<svg width="48" height="48" viewBox="0 0 48 48" fill="none" xmlns="http://www.w3.org/2000/svg">
<path d="M21.2484 2.45925C22.5574 1.28936 23.2119 0.704414 24 0.704414C24.7881 0.704414 25.4426 1.28936 26.7516 2.45925L27.2146 2.87308C28.0142 3.58778 28.4141 3.94513 28.9128 4.06806C29.4115 4.19099 29.9316 4.06037 30.9718 3.79915L31.5741 3.6479C33.2768 3.22031 34.1281 3.00652 34.826 3.37278C35.5239 3.73905 35.8315 4.56114 36.4469 6.20533L36.6645 6.78692C37.0405 7.79138 37.2284 8.29361 37.6129 8.63423C37.9974 8.97484 38.5186 9.10089 39.561 9.353L40.1646 9.49897C41.871 9.91164 42.7242 10.118 43.1719 10.7666C43.6196 11.4152 43.51 12.2861 43.2908 14.0279L43.2132 14.6441C43.0793 15.7082 43.0123 16.2402 43.1944 16.7205C43.3766 17.2008 43.7795 17.5546 44.5854 18.2623L45.052 18.6721C46.3712 19.8304 47.0307 20.4096 47.1257 21.192C47.2207 21.9744 46.7189 22.6946 45.7154 24.135L45.3604 24.6446C44.7473 25.5245 44.4407 25.9645 44.3788 26.4744C44.3169 26.9843 44.5092 27.4849 44.8939 28.486L45.1167 29.0657C45.7464 30.7044 46.0612 31.5238 45.7818 32.2607C45.5023 32.9977 44.7233 33.4022 43.1652 34.2112L42.6141 34.4974C41.6623 34.9916 41.1864 35.2388 40.8946 35.6615C40.6028 36.0842 40.5405 36.6168 40.4159 37.6821L40.3437 38.2989C40.1398 40.0425 40.0378 40.9144 39.4478 41.437C38.8579 41.9596 37.9801 41.9558 36.2246 41.9481L35.6036 41.9454C34.5311 41.9407 33.9949 41.9383 33.5401 42.1771C33.0852 42.4158 32.7825 42.8584 32.1772 43.7437L31.8266 44.2563C30.8357 45.7055 30.3402 46.43 29.575 46.6187C28.8098 46.8073 28.0343 46.396 26.4834 45.5733L25.9348 45.2823C24.9874 44.7797 24.5137 44.5285 24 44.5285C23.4863 44.5285 23.0126 44.7797 22.0652 45.2823L21.5166 45.5733C19.9657 46.396 19.1902 46.8073 18.425 46.6187C17.6598 46.43 17.1643 45.7055 16.1734 44.2563L15.8228 43.7437C15.2175 42.8584 14.9148 42.4158 14.4599 42.1771C14.0051 41.9383 13.4689 41.9407 12.3964 41.9454L11.7754 41.9481C10.0199 41.9558 9.1421 41.9596 8.55217 41.437C7.96224 40.9144 7.86025 40.0425 7.65627 38.2989L7.58412 37.6821C7.4595 36.6168 7.3972 36.0842 7.10541 35.6615C6.81362 35.2388 6.33771 34.9916 5.38589 34.4974L4.83477 34.2112C3.27674 33.4022 2.49773 32.9977 2.21825 32.2607C1.93877 31.5238 2.25362 30.7044 2.88333 29.0657L3.10608 28.486C3.49078 27.4849 3.68313 26.9843 3.62122 26.4744C3.5593 25.9645 3.25275 25.5245 2.63964 24.6446L2.28464 24.135C1.28106 22.6946 0.779266 21.9744 0.874265 21.192C0.969265 20.4096 1.62883 19.8304 2.94797 18.6721L3.41459 18.2623C4.22047 17.5546 4.62341 17.2008 4.80556 16.7205C4.9877 16.2402 4.92073 15.7082 4.7868 14.6441L4.70925 14.0279C4.49001 12.2861 4.38039 11.4152 4.82811 10.7666C5.27582 10.118 6.12901 9.91164 7.83537 9.49897L8.43897 9.353C9.48141 9.10089 10.0026 8.97484 10.3871 8.63423C10.7716 8.29361 10.9595 7.79138 11.3355 6.78692L11.5531 6.20533C12.1685 4.56114 12.4761 3.73905 13.174 3.37278C13.8719 3.00652 14.7232 3.22031 16.4259 3.6479L17.0282 3.79915C18.0684 4.06037 18.5885 4.19099 19.0872 4.06806C19.5859 3.94513 19.9858 3.58778 20.7854 2.87308L21.2484 2.45925Z" fill="#FFC700"/>
<path d="M22.7682 15.7022V19.1316H20.1221V32.8387H15.6659V19.1316H13.0303V15.7022H22.7682ZM33.734 15.7022V32.8387H29.8282L27.5102 25.0484V32.8387H23.7844V15.7022H27.5102L30.0082 23.4184V15.7022H33.734Z" fill="black"/>
</svg>
