<svg width="144" height="144" viewBox="0 0 144 144" fill="none" xmlns="http://www.w3.org/2000/svg">
<circle cx="72" cy="72" r="72" fill="#FF3B20"/>
<g clip-path="url(#clip0_213_1252)">
<path d="M76.9424 20.2964C75.6369 20.1596 74.6553 19.6949 73.9975 18.9023C73.3398 18.1096 73.0797 17.0563 73.2174 15.7424L73.7308 10.8407L76.2323 11.1027L75.7267 15.9287C75.6473 16.6867 75.7378 17.2454 75.9982 17.6047C76.267 17.9649 76.6625 18.1724 77.1847 18.2271C77.7068 18.2818 78.1325 18.1604 78.4617 17.8628C78.7909 17.5652 78.9952 17.0374 79.0746 16.2794L79.5801 11.4534L82.0437 11.7114L81.5302 16.6132C81.3926 17.9271 80.9199 18.9036 80.1121 19.5428C79.3044 20.1819 78.2478 20.4331 76.9424 20.2964Z" fill="white"/>
<path d="M83.7768 21.2043L86.0254 12.6015L88.4588 13.2377L86.2101 21.8405L83.7768 21.2043Z" fill="white"/>
<path d="M92.2365 23.7142L96.4338 15.8754L100.14 17.8605C101.006 18.3243 101.682 18.8926 102.167 19.5655C102.652 20.2383 102.921 20.9639 102.975 21.7421C103.037 22.5243 102.852 23.3186 102.42 24.1249C101.992 24.9237 101.434 25.518 100.745 25.9079C100.067 26.2943 99.3139 26.4721 98.4851 26.4412C97.6563 26.4104 96.8089 26.1631 95.9429 25.6993L92.2365 23.7142ZM95.401 23.1323L96.8007 23.882C97.2487 24.1219 97.6808 24.2477 98.0972 24.2594C98.5251 24.2676 98.9183 24.1611 99.2768 23.9401C99.6393 23.7116 99.9405 23.3733 100.18 22.9254C100.424 22.47 100.539 22.0318 100.524 21.6108C100.509 21.1899 100.378 20.8073 100.13 20.4631C99.8934 20.1155 99.5512 19.8217 99.1033 19.5818L97.7036 18.8322L95.401 23.1323Z" fill="white"/>
<path d="M106.921 27.4533L110.1 30.0957L108.897 31.5433L105.718 28.901L106.921 27.4533ZM104.815 30.2669L108.394 33.2425L107.151 34.7391L101.654 30.1699L107.344 23.3229L112.714 27.7864L111.47 29.2829L108.018 26.413L104.815 30.2669Z" fill="white"/>
<path d="M111.301 38.0378C110.83 37.4822 110.444 36.8884 110.141 36.2566C109.851 35.6257 109.679 35.0557 109.625 34.5465L111.573 33.9773C111.637 34.4452 111.771 34.931 111.976 35.4346C112.192 35.9392 112.468 36.3886 112.802 36.7827C113.026 37.0476 113.229 37.2416 113.411 37.3648C113.6 37.4825 113.763 37.5441 113.901 37.5494C114.051 37.5558 114.18 37.5124 114.29 37.4193C114.445 37.2879 114.508 37.1128 114.478 36.894C114.448 36.6752 114.366 36.4281 114.233 36.1527C114.099 35.8773 113.944 35.5761 113.766 35.249C113.595 34.9283 113.436 34.5908 113.291 34.2363C113.152 33.8883 113.057 33.541 113.008 33.1944C112.965 32.8423 112.999 32.4967 113.111 32.1574C113.23 31.8127 113.47 31.487 113.832 31.1804C114.239 30.8355 114.7 30.6332 115.216 30.5736C115.737 30.5205 116.287 30.632 116.865 30.908C117.443 31.1841 118.013 31.6549 118.577 32.3203C118.955 32.7661 119.273 33.246 119.531 33.76C119.801 34.275 119.981 34.7827 120.072 35.2829L118.147 35.8991C118.047 35.4282 117.906 34.9989 117.721 34.6111C117.544 34.2179 117.329 33.8726 117.077 33.5754C116.852 33.3106 116.643 33.122 116.448 33.0097C116.259 32.892 116.09 32.836 115.939 32.8415C115.788 32.8471 115.655 32.8992 115.538 32.9978C115.39 33.1237 115.328 33.2928 115.352 33.5052C115.389 33.7185 115.474 33.9628 115.607 34.2383C115.753 34.5146 115.911 34.8132 116.083 35.1338C116.26 35.4609 116.419 35.7984 116.558 36.1464C116.71 36.4954 116.807 36.846 116.85 37.198C116.899 37.5446 116.862 37.887 116.738 38.2253C116.626 38.5646 116.392 38.8848 116.037 39.1859C115.643 39.5199 115.182 39.7162 114.654 39.7748C114.139 39.8344 113.592 39.7261 113.014 39.4501C112.441 39.1805 111.871 38.7097 111.301 38.0378Z" fill="white"/>
<path d="M115.044 42.6047L122.512 37.8027L123.87 39.9155L116.402 44.7175L115.044 42.6047Z" fill="white"/>
<path d="M119.369 50.6731C119.081 50.032 118.914 49.3921 118.868 48.7534C118.83 48.1112 118.91 47.5042 119.108 46.9324C119.31 46.3684 119.615 45.8598 120.024 45.4066C120.441 44.95 120.959 44.5829 121.576 44.3051C122.194 44.0274 122.809 43.8859 123.419 43.8808C124.037 43.8722 124.626 43.9837 125.185 44.2152C125.744 44.4468 126.247 44.7916 126.694 45.2498C127.153 45.7122 127.529 46.2717 127.824 46.9283C128.168 47.693 128.348 48.4339 128.364 49.151C128.379 49.868 128.236 50.5312 127.935 51.1404L125.958 50.2741C126.134 49.8606 126.223 49.4587 126.224 49.0683C126.236 48.6822 126.153 48.2922 125.976 47.8982C125.82 47.5506 125.624 47.2582 125.387 47.021C125.151 46.7838 124.883 46.6117 124.584 46.5046C124.293 46.394 123.979 46.345 123.641 46.3576C123.314 46.3745 122.973 46.4627 122.618 46.6224C122.278 46.7752 121.989 46.9699 121.752 47.2065C121.518 47.4508 121.342 47.7202 121.224 48.0148C121.114 48.3059 121.063 48.6165 121.072 48.9467C121.092 49.2811 121.179 49.6182 121.331 49.9581C121.484 50.298 121.688 50.6058 121.941 50.8816C122.203 51.154 122.544 51.3955 122.963 51.6061L121.931 53.6161C121.39 53.3019 120.894 52.8796 120.442 52.3492C119.991 51.8189 119.633 51.2601 119.369 50.6731ZM121.321 51.453L124.38 50.0782L125.291 52.1059L121.931 53.6161L121.321 51.453Z" fill="white"/>
<path d="M121.985 56.4436L130.682 54.5932L131.113 56.6184L126.343 62.6462L126.14 61.6895L131.929 60.4576L132.442 62.868L123.745 64.7184L123.314 62.6932L128.084 56.6654L128.287 57.6221L122.498 58.854L121.985 56.4436Z" fill="white"/>
<path d="M129.534 69.7263L129.601 73.8541L127.722 73.8846L127.655 69.7568L129.534 69.7263ZM126.032 69.961L126.107 74.6096L124.164 74.6411L124.048 67.5032L132.939 67.3588L133.052 74.3316L131.109 74.3632L131.036 69.8798L126.032 69.961Z" fill="white"/>
<path d="M124.069 76.9298L132.824 78.4832L132.114 82.4856C131.972 83.2861 131.721 83.951 131.361 84.4805C130.999 85.0183 130.543 85.402 129.995 85.6316C129.456 85.8626 128.852 85.919 128.185 85.8006C127.526 85.6838 126.983 85.424 126.556 85.0213C126.137 84.6202 125.85 84.1048 125.695 83.4753C125.547 82.8555 125.544 82.1454 125.686 81.345L126.152 78.7184L126.994 80.0033L123.63 79.4063L124.069 76.9298ZM123.109 82.3455L126.684 80.7351L126.216 83.3742L122.638 84.9971L123.109 82.3455ZM126.732 79.9567L128.065 79.0579L127.626 81.5344C127.534 82.0514 127.579 82.4549 127.759 82.745C127.939 83.0434 128.229 83.2282 128.629 83.2992C129.037 83.3717 129.377 83.2986 129.648 83.0801C129.918 82.8699 130.098 82.5063 130.19 81.9893L130.629 79.5129L131.572 80.8155L126.732 79.9567Z" fill="white"/>
<path d="M120.152 91.6899C120.307 91.3142 120.563 91.049 120.921 90.8943C121.278 90.7396 121.648 90.7415 122.032 90.9C122.431 91.065 122.694 91.3252 122.822 91.6805C122.958 92.0391 122.948 92.4062 122.793 92.7819C122.638 93.1575 122.386 93.4243 122.036 93.5823C121.695 93.7435 121.324 93.7416 120.925 93.5766C120.542 93.418 120.278 93.1579 120.134 92.7961C119.991 92.4342 119.997 92.0655 120.152 91.6899Z" fill="white"/>
<path d="M114.796 101.462C115.552 100.389 116.436 99.7583 117.449 99.5704C118.461 99.3826 119.508 99.6691 120.588 100.43L124.617 103.268L123.169 105.325L119.202 102.53C118.579 102.091 118.047 101.898 117.606 101.95C117.161 102.009 116.787 102.253 116.484 102.682C116.182 103.112 116.08 103.543 116.18 103.975C116.279 104.408 116.64 104.843 117.263 105.282L121.23 108.077L119.804 110.102L115.775 107.264C114.695 106.503 114.073 105.614 113.908 104.597C113.744 103.58 114.04 102.535 114.796 101.462Z" fill="white"/>
<path d="M110.653 106.954L117.055 113.09L115.32 114.901L108.918 108.765L110.653 106.954Z" fill="white"/>
<path d="M104.388 113.149L109.215 120.617L105.684 122.9C104.859 123.433 104.035 123.749 103.211 123.848C102.388 123.947 101.623 123.832 100.916 123.502C100.201 123.177 99.5962 122.631 99.0997 121.863C98.6078 121.102 98.3581 120.325 98.3505 119.534C98.3404 118.754 98.5495 118.008 98.9776 117.298C99.4058 116.587 100.032 115.966 100.857 115.432L104.388 113.149ZM103.366 116.201L102.032 117.063C101.605 117.339 101.286 117.656 101.074 118.015C100.86 118.385 100.763 118.781 100.783 119.201C100.807 119.629 100.957 120.057 101.233 120.483C101.514 120.917 101.842 121.23 102.217 121.42C102.592 121.611 102.991 121.682 103.412 121.631C103.831 121.592 104.253 121.435 104.68 121.159L106.013 120.297L103.366 116.201Z" fill="white"/>
<path d="M94.3664 125.103L90.5212 126.606L89.8371 124.855L93.6823 123.352L94.3664 125.103ZM92.9251 121.903L88.5947 123.595L87.8876 121.784L94.5369 119.186L97.7723 127.469L91.2768 130.007L90.5696 128.196L94.7461 126.564L92.9251 121.903Z" fill="white"/>
<path d="M82.6106 122.845C83.3243 122.706 84.03 122.66 84.7277 122.706C85.4187 122.761 85.9991 122.89 86.4687 123.091L86.0119 125.066C85.5736 124.892 85.0852 124.772 84.5468 124.704C84.0017 124.646 83.476 124.666 82.9698 124.764C82.6295 124.83 82.3613 124.912 82.1651 125.011C81.9704 125.117 81.8372 125.229 81.7652 125.347C81.6865 125.474 81.6608 125.608 81.6882 125.749C81.7268 125.948 81.8487 126.088 82.0538 126.169C82.2589 126.25 82.5139 126.299 82.8188 126.318C83.1238 126.336 83.4619 126.348 83.8332 126.353C84.1963 126.361 84.5675 126.388 84.9469 126.435C85.318 126.483 85.6664 126.571 85.9923 126.697C86.3197 126.831 86.6037 127.03 86.8442 127.294C87.0863 127.565 87.2524 127.934 87.3425 128.398C87.4439 128.921 87.3945 129.422 87.1944 129.9C86.986 130.379 86.6204 130.803 86.0976 131.171C85.5749 131.54 84.8861 131.807 84.0313 131.973C83.4586 132.084 82.8856 132.126 82.3121 132.099C81.732 132.083 81.202 131.992 80.7222 131.826L81.1268 129.849C81.5852 129.993 82.0281 130.079 82.4557 130.108C82.8849 130.145 83.2903 130.127 83.6721 130.053C84.0124 129.987 84.279 129.897 84.472 129.782C84.6666 129.675 84.7983 129.555 84.867 129.421C84.9358 129.287 84.9557 129.145 84.9267 128.996C84.8897 128.805 84.7728 128.669 84.576 128.586C84.3725 128.514 84.1183 128.468 83.8134 128.45C83.5017 128.441 83.1644 128.434 82.8014 128.426C82.43 128.421 82.0588 128.394 81.6877 128.345C81.31 128.307 80.9574 128.22 80.6299 128.085C80.304 127.959 80.0242 127.759 79.7904 127.486C79.5499 127.223 79.3854 126.863 79.2969 126.406C79.1988 125.9 79.2531 125.403 79.4599 124.915C79.66 124.437 80.0215 124.014 80.5442 123.646C81.0587 123.279 81.7475 123.012 82.6106 122.845Z" fill="white"/>
<path d="M76.7925 123.945L77.3477 132.82L74.8375 132.977L74.2823 124.102L76.7925 123.945Z" fill="white"/>
<path d="M67.6534 123.778C68.3538 123.837 68.9943 124.002 69.5749 124.272C70.1548 124.55 70.6466 124.915 71.0505 125.365C71.4459 125.815 71.7424 126.329 71.9401 126.907C72.137 127.493 72.207 128.123 72.15 128.798C72.0929 129.473 71.9185 130.079 71.6268 130.615C71.3343 131.16 70.9512 131.62 70.4774 131.997C70.0037 132.373 69.458 132.646 68.8404 132.815C68.2136 132.991 67.5415 133.049 66.8243 132.988C65.9889 132.918 65.2538 132.715 64.6192 132.381C63.9845 132.047 63.4741 131.6 63.088 131.041L64.8047 129.733C65.0807 130.087 65.3891 130.36 65.73 130.55C66.0617 130.748 66.4427 130.865 66.8731 130.902C67.2528 130.934 67.6038 130.904 67.926 130.812C68.2482 130.721 68.5286 130.57 68.7672 130.361C69.0052 130.16 69.2006 129.909 69.3536 129.607C69.4974 129.313 69.5857 128.972 69.6185 128.584C69.6498 128.213 69.6196 127.866 69.5279 127.544C69.4277 127.221 69.2775 126.936 69.0774 126.69C68.8765 126.452 68.6295 126.257 68.3364 126.105C68.0342 125.96 67.6974 125.872 67.3262 125.841C66.9549 125.81 66.587 125.838 66.2226 125.926C65.8575 126.023 65.4811 126.203 65.0933 126.468L63.837 124.59C64.3739 124.27 64.9839 124.041 65.6669 123.903C66.35 123.766 67.0121 123.724 67.6534 123.778ZM66.0242 125.106L65.7419 128.448L63.5268 128.261L63.837 124.59L66.0242 125.106Z" fill="white"/>
<path d="M61.3362 123.271L58.7412 131.776L56.7608 131.171L53.7987 124.078L54.7342 124.364L53.0067 130.026L50.6497 129.306L53.2447 120.802L55.225 121.406L58.1872 128.499L57.2517 128.213L58.9792 122.552L61.3362 123.271Z" fill="white"/>
<path d="M46.4391 122.554L42.8063 120.572L43.7086 118.918L47.3415 120.899L46.4391 122.554ZM47.9653 119.383L43.8742 117.151L44.807 115.441L51.089 118.868L46.8213 126.693L40.6846 123.345L41.6174 121.635L45.5632 123.788L47.9653 119.383Z" fill="white"/>
<path d="M42.4635 115.089L36.862 121.936L33.7323 119.375C33.1063 118.863 32.6511 118.322 32.3665 117.751C32.0755 117.176 31.9634 116.594 32.0304 116.007C32.0921 115.426 32.3363 114.874 32.763 114.353C33.1845 113.838 33.6738 113.492 34.231 113.317C34.7828 113.148 35.3697 113.149 35.9915 113.32C36.6014 113.493 37.2194 113.835 37.8453 114.347L39.8992 116.028L38.3744 116.136L40.5269 113.504L42.4635 115.089ZM38.2285 111.624L37.8898 115.511L35.8261 113.822L36.155 109.927L38.2285 111.624ZM38.5424 115.93L38.6749 117.525L36.7384 115.94C36.3341 115.609 35.9621 115.452 35.6225 115.468C35.2763 115.479 34.9752 115.64 34.7191 115.953C34.4577 116.273 34.3561 116.603 34.4142 116.945C34.4658 117.281 34.6937 117.614 35.0979 117.945L37.0345 119.53L35.4456 119.716L38.5424 115.93Z" fill="white"/>
<path d="M31.4218 104.541C31.675 104.859 31.7826 105.212 31.7447 105.599C31.7068 105.987 31.5255 106.31 31.201 106.568C30.8631 106.837 30.5078 106.942 30.135 106.881C29.7556 106.826 29.4393 106.64 29.1861 106.322C28.9329 106.004 28.8219 105.653 28.8532 105.271C28.8779 104.894 29.0591 104.571 29.397 104.302C29.7216 104.044 30.0769 103.94 30.4629 103.989C30.849 104.039 31.1686 104.223 31.4218 104.541Z" fill="white"/>
<path d="M25.4699 95.1189C26.0423 96.3001 26.1654 97.3791 25.839 98.3561C25.5126 99.3331 24.755 100.11 23.5662 100.686L19.1313 102.836L18.0343 100.573L22.4007 98.456C23.0866 98.1235 23.5134 97.7519 23.6814 97.3411C23.8456 96.9227 23.8132 96.4772 23.5842 96.0047C23.3552 95.5323 23.0275 95.2347 22.601 95.1121C22.1746 94.9894 21.6185 95.0943 20.9326 95.4268L16.5662 97.5435L15.4859 95.3144L19.9209 93.1645C21.1097 92.5882 22.1886 92.4746 23.1576 92.8236C24.1266 93.1726 24.8974 93.9377 25.4699 95.1189Z" fill="white"/>
<path d="M23.5174 88.5712L14.9813 91.2391L14.2268 88.8245L22.7629 86.1567L23.5174 88.5712Z" fill="white"/>
<path d="M20.3116 80.3494L11.4385 80.9264L11.1657 76.7307C11.102 75.7504 11.2276 74.8766 11.5427 74.1094C11.8577 73.3421 12.3313 72.73 12.9635 72.273C13.5952 71.8076 14.3674 71.5453 15.28 71.4859C16.1843 71.4271 16.9839 71.5873 17.679 71.9664C18.365 72.3376 18.9139 72.8832 19.3256 73.6033C19.7373 74.3233 19.9751 75.1734 20.0388 76.1537L20.3116 80.3494ZM18.1456 77.9698L18.0426 76.3853C18.0096 75.8783 17.8881 75.4449 17.678 75.0852C17.4589 74.7175 17.1609 74.4399 16.7837 74.2523C16.3982 74.0652 15.9519 73.9881 15.4449 74.0211C14.9294 74.0546 14.4968 74.1888 14.1472 74.4237C13.7975 74.6586 13.5421 74.9722 13.3809 75.3646C13.2107 75.7491 13.1421 76.1948 13.1751 76.7019L13.2781 78.2863L18.1456 77.9698Z" fill="white"/>
<path d="M14.7517 65.7729L15.3026 61.6815L17.1658 61.9325L16.6148 66.0239L14.7517 65.7729ZM18.2499 66.0647L18.8704 61.4571L20.7965 61.7165L19.8438 68.7915L11.0315 67.6046L11.9622 60.6933L13.8883 60.9527L13.2899 65.3966L18.2499 66.0647Z" fill="white"/>
<path d="M22.3887 56.5842C22.1654 57.2774 21.8654 57.9192 21.4885 58.5096C21.1061 59.0893 20.713 59.5365 20.3091 59.8513L18.7969 58.4968C19.1607 58.1958 19.5024 57.8254 19.8219 57.3857C20.136 56.9352 20.3722 56.4641 20.5305 55.9724C20.637 55.6419 20.6944 55.3668 20.7029 55.1471C20.7033 54.9248 20.6694 54.7538 20.6012 54.634C20.5276 54.5035 20.4222 54.4162 20.2852 54.372C20.0917 54.3097 19.91 54.3491 19.7401 54.4901C19.5701 54.6311 19.4035 54.831 19.2401 55.0897C19.0767 55.3485 18.9029 55.6395 18.7188 55.9627C18.5372 56.2779 18.3342 56.5907 18.1097 56.9009C17.8879 57.2031 17.6429 57.4668 17.3747 57.6918C17.0984 57.9142 16.7867 58.0673 16.4394 58.1512C16.084 58.2325 15.6807 58.2005 15.2293 58.0551C14.7215 57.8915 14.3061 57.6065 13.9833 57.2001C13.663 56.7855 13.4675 56.2599 13.3967 55.6232C13.3259 54.9866 13.4242 54.2531 13.6915 53.4228C13.8706 52.8666 14.1103 52.3433 14.4106 51.8528C14.7054 51.3517 15.0412 50.9305 15.418 50.5892L16.9579 51.8992C16.6104 52.2321 16.3207 52.5792 16.0888 52.9405C15.8488 53.2991 15.669 53.6638 15.5496 54.0346C15.4432 54.3651 15.3939 54.6428 15.4015 54.8677C15.4011 55.09 15.4431 55.2636 15.5274 55.3886C15.6117 55.5137 15.7263 55.5995 15.8714 55.6463C16.0568 55.706 16.2332 55.6694 16.4006 55.5364C16.5625 55.3928 16.7251 55.1917 16.8885 54.9329C17.0464 54.6635 17.2161 54.3712 17.3977 54.056C17.5819 53.7327 17.7849 53.42 18.0067 53.1178C18.2231 52.8049 18.4694 52.5373 18.7457 52.3148C19.0139 52.0898 19.3243 51.9407 19.6771 51.8675C20.0244 51.7836 20.4197 51.8131 20.863 51.9558C21.3547 52.1142 21.7647 52.4019 22.093 52.8191C22.4159 53.2255 22.6127 53.7471 22.6835 54.3838C22.7569 55.0124 22.6586 55.7459 22.3887 56.5842Z" fill="white"/>
<path d="M24.3167 50.9942L16.3142 47.1703L17.3956 44.9066L25.398 48.7305L24.3167 50.9942Z" fill="white"/>
<path d="M28.8691 43.0637C28.4761 43.6465 28.0203 44.1255 27.5015 44.5009C26.9758 44.8715 26.4178 45.1233 25.8276 45.2563C25.2421 45.3823 24.649 45.3909 24.0484 45.2819C23.4407 45.1682 22.856 44.9219 22.2944 44.543C21.7328 44.1642 21.2889 43.7167 20.9629 43.2005C20.6299 42.6796 20.4145 42.1205 20.3167 41.5234C20.2189 40.9263 20.2469 40.3169 20.4005 39.6953C20.5519 39.0619 20.8288 38.4468 21.2313 37.85C21.7001 37.155 22.235 36.6118 22.836 36.2204C23.437 35.8291 24.0759 35.6012 24.7526 35.5367L25.0582 37.6735C24.6139 37.7416 24.2257 37.878 23.8934 38.0829C23.5589 38.2761 23.2708 38.5517 23.0293 38.9098C22.8163 39.2257 22.6713 39.5467 22.5944 39.8728C22.5174 40.1988 22.5122 40.5171 22.5786 40.8275C22.6381 41.1332 22.7621 41.4263 22.9509 41.7068C23.1373 41.9756 23.392 42.2189 23.7149 42.4368C24.0238 42.6452 24.3413 42.7878 24.6673 42.8647C24.9981 42.9347 25.3198 42.9423 25.6325 42.8876C25.9381 42.8282 26.2289 42.7076 26.5046 42.5259C26.7781 42.3324 27.019 42.0813 27.2274 41.7723C27.4357 41.4634 27.5902 41.1284 27.6908 40.7672C27.7843 40.4013 27.8101 39.9845 27.768 39.5168L30.0201 39.3353C30.0379 39.9602 29.9404 40.6044 29.7278 41.268C29.5152 41.9316 29.229 42.5301 28.8691 43.0637ZM28.5033 40.9936L25.7233 39.1182L26.9662 37.2752L30.0201 39.3353L28.5033 40.9936Z" fill="white"/>
<path d="M32.3962 37.7986L26.2254 31.3966L27.716 29.9595L35.3538 30.8182L34.6497 31.4971L30.5417 27.2352L32.3157 25.5248L38.4865 31.9268L36.996 33.3639L29.3581 32.5052L30.0623 31.8263L34.1703 36.0882L32.3962 37.7986Z" fill="white"/>
<path d="M39.7087 24.325L43.185 22.0981L44.1989 23.6812L40.7226 25.9081L39.7087 24.325ZM41.7493 27.1814L45.6641 24.6736L46.7122 26.3102L40.701 30.161L35.9055 22.6731L41.7777 18.9115L42.8258 20.5481L39.0501 22.9668L41.7493 27.1814Z" fill="white"/>
<path d="M48.6682 25.1786L45.3786 16.9091L49.1588 15.4049C49.9149 15.1041 50.6132 14.9676 51.2537 14.9956C51.9021 15.0204 52.4684 15.2056 52.9525 15.5511C53.4335 15.8889 53.7993 16.3727 54.0499 17.0028C54.2974 17.625 54.3624 18.224 54.2448 18.7999C54.1242 19.3679 53.8367 19.8836 53.3826 20.3471C52.9332 20.7996 52.3304 21.1763 51.5744 21.4771L49.0936 22.4642L49.7431 21.07L51.0073 24.2479L48.6682 25.1786ZM53.7834 23.1433L50.5295 20.9487L53.0221 19.9569L56.2878 22.1468L53.7834 23.1433ZM49.8418 21.3181L48.3746 20.6567L50.7136 19.726C51.2019 19.5318 51.5219 19.2813 51.6735 18.9746C51.8331 18.6648 51.8377 18.3209 51.6873 17.9429C51.5338 17.557 51.2926 17.3063 50.9639 17.1908C50.643 17.0721 50.2385 17.11 49.7502 17.3043L47.4112 18.2349L48.0231 16.7463L49.8418 21.3181Z" fill="white"/>
<path d="M63.4488 21.6835C63.0464 21.7486 62.6852 21.6693 62.3651 21.4458C62.0451 21.2222 61.8519 20.905 61.7855 20.4942C61.7165 20.0666 61.7999 19.7047 62.0359 19.4085C62.2706 19.1039 62.5891 18.9191 62.9916 18.854C63.394 18.789 63.7545 18.864 64.0732 19.0792C64.3905 19.286 64.5837 19.6032 64.6528 20.0308C64.7192 20.4416 64.6357 20.8035 64.4024 21.1165C64.1691 21.4295 63.8512 21.6185 63.4488 21.6835Z" fill="white"/>
<path fill-rule="evenodd" clip-rule="evenodd" d="M103 72C103 54.3269 88.6731 40 71 40C53.3269 40 39 54.3269 39 72C39 89.6731 53.3269 104 71 104C88.6731 104 103 89.6731 103 72ZM67 72C67 86.0433 68.1308 97.9737 69.7036 102.282C69.4067 101.974 69.0856 101.55 68.7469 100.976C67.86 99.4759 67.0266 97.238 66.3133 94.3849C64.8906 88.6941 64 80.7794 64 72C64 63.2206 64.8906 55.3059 66.3133 49.6151C67.0266 46.762 67.86 44.5241 68.7469 43.0235C69.0856 42.4505 69.4066 42.0259 69.7036 41.7179C68.1308 46.0263 67 57.9567 67 72ZM73.2531 100.976C72.9144 101.55 72.5933 101.974 72.2963 102.282C73.8692 97.9737 75 86.0433 75 72C75 57.9567 73.8692 46.0263 72.2963 41.7179C72.5933 42.0259 72.9144 42.4504 73.2531 43.0235C74.14 44.5241 74.9734 46.762 75.6867 49.6151C77.1094 55.3059 78 63.2206 78 72C78 80.7794 77.1094 88.6941 75.6867 94.3849C74.9734 97.238 74.14 99.4759 73.2531 100.976ZM68.0786 101.799C67.7454 101.524 67.4113 101.199 67.0773 100.822C65.7517 99.3267 64.5122 97.1061 63.451 94.2763C61.3314 88.624 60 80.7484 60 72C60 63.2516 61.3314 55.376 63.451 49.7237C64.5122 46.8939 65.7517 44.6733 67.0773 43.1781C67.4113 42.8014 67.7454 42.4763 68.0786 42.2007C65.1052 46.8683 63 58.4507 63 72C63 85.5493 65.1052 97.1317 68.0786 101.799ZM73.9214 101.799C74.2546 101.524 74.5887 101.199 74.9227 100.822C76.2483 99.3267 77.4878 97.1061 78.549 94.2763C80.6686 88.624 82 80.7484 82 72C82 63.2516 80.6686 55.376 78.549 49.7237C77.4878 46.8939 76.2483 44.6733 74.9227 43.1781C74.5887 42.8014 74.2546 42.4763 73.9214 42.2007C76.8948 46.8683 79 58.4507 79 72C79 85.5493 76.8948 97.1317 73.9214 101.799ZM60.5807 94.1802C62.2049 97.4286 64.1228 99.8446 66.184 101.319C61.9544 96.371 59 85.1055 59 72C59 58.8945 61.9544 47.629 66.184 42.6813C64.1228 44.1554 62.2049 46.5714 60.5807 49.8198C57.7683 55.4445 56 63.285 56 72C56 80.715 57.7683 88.5555 60.5807 94.1802ZM81.4193 94.1802C79.7951 97.4286 77.8772 99.8446 75.816 101.319C80.0456 96.371 83 85.1055 83 72C83 58.8945 80.0456 47.629 75.816 42.6813C77.8772 44.1554 79.7951 46.5714 81.4193 49.8198C84.2317 55.4445 86 63.285 86 72C86 80.715 84.2317 88.5555 81.4193 94.1802ZM64.0718 100.853C61.7035 99.3276 59.5396 97.0314 57.7059 94.0974C54.2007 88.4891 52 80.6791 52 72C52 63.3209 54.2007 55.5109 57.7059 49.9026C59.5396 46.9686 61.7035 44.6724 64.0718 43.1474C58.7045 48.312 55 59.2908 55 72C55 84.7092 58.7046 95.688 64.0718 100.853ZM77.9282 100.853C80.2965 99.3276 82.4604 97.0314 84.2941 94.0974C87.7993 88.4891 90 80.6791 90 72C90 63.3209 87.7993 55.5109 84.2941 49.9026C82.4604 46.9686 80.2965 44.6724 77.9282 43.1474C83.2954 48.312 87 59.2908 87 72C87 84.7092 83.2954 95.688 77.9282 100.853ZM54.8294 94.0274C56.8315 96.6968 59.1802 98.8598 61.7661 100.393C55.3681 95.055 51 84.3437 51 72C51 59.6563 55.3681 48.945 61.7661 43.6073C59.1802 45.1402 56.8315 47.3031 54.8294 49.9726C50.6281 55.5743 48 63.3589 48 72C48 80.6411 50.6281 88.4257 54.8294 94.0274ZM87.1706 94.0274C85.1685 96.6969 82.8198 98.8598 80.2339 100.393C86.6318 95.0551 91 84.3437 91 72C91 59.6563 86.6318 48.9449 80.2339 43.6073C82.8198 45.1402 85.1685 47.3031 87.1706 49.9726C91.3719 55.5743 94 63.3589 94 72C94 80.6411 91.3719 88.4257 87.1706 94.0274ZM59.2616 99.9178C50.2676 94.9219 44 84.3595 44 72C44 59.6405 50.2676 49.0781 59.2615 44.0822C51.9439 49.5638 47 60.0121 47 72C47 83.9879 51.944 94.4362 59.2616 99.9178ZM82.7384 99.9178C91.7323 94.9219 98 84.3595 98 72C98 59.6405 91.7323 49.0781 82.7384 44.0822C90.056 49.5638 95 60.0121 95 72C95 83.9879 90.056 94.4362 82.7384 99.9178ZM40 72C40 83.9483 46.7596 94.3177 56.6633 99.4928C48.4801 93.9072 43 83.685 43 72C43 60.315 48.4801 50.0928 56.6633 44.5072C46.7596 49.6823 40 60.0517 40 72ZM102 72C102 83.9483 95.2404 94.3177 85.3367 99.4928C93.5199 93.9072 99 83.685 99 72C99 60.315 93.5199 50.0928 85.3367 44.5072C95.2404 49.6823 102 60.0517 102 72ZM72.8362 94.5034C73.5534 88.7651 74 80.8085 74 72C74 63.1915 73.5534 55.2349 72.8362 49.4966C72.4766 46.6205 72.0537 44.34 71.598 42.7981C71.5651 42.687 71.5325 42.5809 71.5 42.4797V101.52C71.5325 101.419 71.5651 101.313 71.598 101.202C72.0537 99.66 72.4766 97.3795 72.8362 94.5034ZM70.5 42.4797V101.52C70.4675 101.419 70.4349 101.313 70.402 101.202C69.9463 99.66 69.5234 97.3795 69.1639 94.5034C68.4466 88.7651 68 80.8085 68 72C68 63.1915 68.4466 55.2349 69.1639 49.4966C69.5234 46.6205 69.9463 44.34 70.402 42.7981C70.4349 42.687 70.4675 42.5809 70.5 42.4797Z" fill="url(#paint0_linear_213_1252)"/>
</g>
<defs>
<linearGradient id="paint0_linear_213_1252" x1="57.5" y1="43" x2="81.5" y2="106" gradientUnits="userSpaceOnUse">
<stop stop-color="white"/>
<stop offset="1" stop-color="white" stop-opacity="0"/>
</linearGradient>
<clipPath id="clip0_213_1252">
<rect width="124" height="124" fill="white" transform="translate(10 10)"/>
</clipPath>
</defs>
</svg>
