<svg width="1191" height="247" viewBox="0 0 1191 247" fill="none" xmlns="http://www.w3.org/2000/svg">
<path d="M137.344 0.679688V48.7734H100.234V241H37.7422V48.7734H0.78125V0.679688H137.344ZM151.594 0.679688H255.797V48.7734H214.086V94.3438H253.125V140.062H214.086V192.906H259.953V241H151.594V0.679688ZM354.508 0.679688V161.289C354.508 185.336 354.26 200.823 353.766 207.75C353.271 214.578 350.995 220.763 346.938 226.305C342.979 231.846 337.536 235.706 330.609 237.883C323.781 239.961 313.44 241 299.586 241H268.266V198.992C272.026 199.289 274.747 199.438 276.43 199.438C280.883 199.438 284.396 198.349 286.969 196.172C289.542 193.995 291.026 191.323 291.422 188.156C291.818 184.99 292.016 178.854 292.016 169.75V0.679688H354.508ZM486.617 0.679688L522.391 241H458.414L455.297 197.805H432.883L429.172 241H364.453L396.219 0.679688H486.617ZM453.516 155.203C450.349 127.99 447.182 94.3932 444.016 54.4141C437.682 100.331 433.724 133.927 432.141 155.203H453.516ZM726.344 0.679688V241H671.57L639.062 131.75V241H586.812V0.679688H639.062L674.094 108.891V0.679688H726.344ZM893.633 0.679688V161.289C893.633 179.497 893.039 192.312 891.852 199.734C890.664 207.057 887.151 214.628 881.312 222.445C875.474 230.164 867.755 236.052 858.156 240.109C848.656 244.068 837.424 246.047 824.461 246.047C810.112 246.047 797.445 243.672 786.461 238.922C775.477 234.172 767.263 227.987 761.82 220.367C756.378 212.747 753.161 204.732 752.172 196.32C751.182 187.81 750.688 169.997 750.688 142.883V0.679688H813.18V180.883C813.18 191.372 813.724 198.102 814.812 201.07C816 203.94 818.326 205.375 821.789 205.375C825.747 205.375 828.271 203.792 829.359 200.625C830.547 197.359 831.141 189.74 831.141 177.766V0.679688H893.633ZM1057.36 0.679688V241H1002.59L970.078 131.75V241H917.828V0.679688H970.078L1005.11 108.891V0.679688H1057.36ZM1082.59 0.679688H1186.8V48.7734H1145.09V94.3438H1184.12V140.062H1145.09V192.906H1190.95V241H1082.59V0.679688Z" fill="white"/>
</svg>
