<svg width="20" height="20" viewBox="0 0 20 20" fill="none" xmlns="http://www.w3.org/2000/svg">
<g id="ic:round-arrow-circle-down">
<path id="Vector" d="M9.99984 3.33333C13.6748 3.33333 16.6665 6.325 16.6665 10C16.6665 13.675 13.6748 16.6667 9.99984 16.6667C6.32484 16.6667 3.33317 13.675 3.33317 10C3.33317 6.325 6.32484 3.33333 9.99984 3.33333ZM9.99984 1.66666C5.39984 1.66666 1.6665 5.4 1.6665 10C1.6665 14.6 5.39984 18.3333 9.99984 18.3333C14.5998 18.3333 18.3332 14.6 18.3332 10C18.3332 5.4 14.5998 1.66666 9.99984 1.66666ZM10.8332 10V7.5C10.8332 7.04166 10.4582 6.66666 9.99984 6.66666C9.5415 6.66666 9.1665 7.04166 9.1665 7.5V10H7.67484C7.29984 10 7.1165 10.45 7.38317 10.7083L9.70817 13.0333C9.87484 13.2 10.1332 13.2 10.2998 13.0333L12.6248 10.7083C12.6819 10.6501 12.7207 10.5764 12.7363 10.4963C12.7519 10.4163 12.7437 10.3334 12.7126 10.258C12.6815 10.1826 12.629 10.1179 12.5616 10.0721C12.4941 10.0262 12.4147 10.0011 12.3332 10H10.8332Z" fill="black"/>
</g>
</svg>
