<svg width="3164" height="93" viewBox="0 0 3164 93" fill="none" xmlns="http://www.w3.org/2000/svg">
<rect x="673" width="451" height="93" rx="46.5" fill="white"/>
<path d="M772.398 28.0547V53.4141C772.398 56.2891 772.305 58.3125 772.117 59.4844C771.93 60.6406 771.375 61.8359 770.453 63.0703C769.531 64.2891 768.312 65.2188 766.797 65.8594C765.297 66.4844 763.523 66.7969 761.477 66.7969C759.211 66.7969 757.211 66.4219 755.477 65.6719C753.742 64.9219 752.445 63.9453 751.586 62.7422C750.727 61.5391 750.219 60.2734 750.062 58.9453C749.906 57.6016 749.828 54.7891 749.828 50.5078V28.0547H759.695V56.5078C759.695 58.1641 759.781 59.2266 759.953 59.6953C760.141 60.1484 760.508 60.375 761.055 60.375C761.68 60.375 762.078 60.125 762.25 59.625C762.438 59.1094 762.531 57.9062 762.531 56.0156V28.0547H772.398ZM786.086 28.0547V66H776.219V28.0547H786.086ZM806.781 27.3281L795.531 66.7266H788.359L799.68 27.3281H806.781ZM831.461 28.0547V53.4141C831.461 56.2891 831.367 58.3125 831.18 59.4844C830.992 60.6406 830.438 61.8359 829.516 63.0703C828.594 64.2891 827.375 65.2188 825.859 65.8594C824.359 66.4844 822.586 66.7969 820.539 66.7969C818.273 66.7969 816.273 66.4219 814.539 65.6719C812.805 64.9219 811.508 63.9453 810.648 62.7422C809.789 61.5391 809.281 60.2734 809.125 58.9453C808.969 57.6016 808.891 54.7891 808.891 50.5078V28.0547H818.758V56.5078C818.758 58.1641 818.844 59.2266 819.016 59.6953C819.203 60.1484 819.57 60.375 820.117 60.375C820.742 60.375 821.141 60.125 821.312 59.625C821.5 59.1094 821.594 57.9062 821.594 56.0156V28.0547H831.461ZM855.273 28.0547L851.828 44.8359L857.031 66H847.891C846.797 62.2188 845.797 57.6172 844.891 52.1953C844.641 54.5859 844.297 57.125 843.859 59.8125L842.922 66H833.312L836.875 44.8359L833.312 28.0547H842.852C843.023 29.1016 843.367 30.8438 843.883 33.2812C844.289 35.1406 844.625 36.8438 844.891 38.3906L847 28.0547H855.273ZM866.922 28.0547H874.305C879.07 28.0547 882.289 28.2734 883.961 28.7109C885.648 29.1484 886.93 29.8672 887.805 30.8672C888.68 31.8672 889.227 32.9844 889.445 34.2188C889.664 35.4375 889.773 37.8438 889.773 41.4375V54.7266C889.773 58.1328 889.609 60.4141 889.281 61.5703C888.969 62.7109 888.414 63.6094 887.617 64.2656C886.82 64.9062 885.836 65.3594 884.664 65.625C883.492 65.875 881.727 66 879.367 66H866.922V28.0547ZM876.789 34.5469V59.5078C878.211 59.5078 879.086 59.2266 879.414 58.6641C879.742 58.0859 879.906 56.5312 879.906 54V39.2578C879.906 37.5391 879.852 36.4375 879.742 35.9531C879.633 35.4688 879.383 35.1172 878.992 34.8984C878.602 34.6641 877.867 34.5469 876.789 34.5469ZM893.453 28.0547H909.906V35.6484H903.32V42.8438H909.484V50.0625H903.32V58.4062H910.562V66H893.453V28.0547ZM934.328 39.5391H925.164V36.7266C925.164 35.4141 925.047 34.5781 924.812 34.2188C924.578 33.8594 924.188 33.6797 923.641 33.6797C923.047 33.6797 922.594 33.9219 922.281 34.4062C921.984 34.8906 921.836 35.625 921.836 36.6094C921.836 37.875 922.008 38.8281 922.352 39.4688C922.68 40.1094 923.609 40.8828 925.141 41.7891C929.531 44.3984 932.297 46.5391 933.438 48.2109C934.578 49.8828 935.148 52.5781 935.148 56.2969C935.148 59 934.828 60.9922 934.188 62.2734C933.562 63.5547 932.344 64.6328 930.531 65.5078C928.719 66.3672 926.609 66.7969 924.203 66.7969C921.562 66.7969 919.305 66.2969 917.43 65.2969C915.57 64.2969 914.352 63.0234 913.773 61.4766C913.195 59.9297 912.906 57.7344 912.906 54.8906V52.4062H922.07V57.0234C922.07 58.4453 922.195 59.3594 922.445 59.7656C922.711 60.1719 923.172 60.375 923.828 60.375C924.484 60.375 924.969 60.1172 925.281 59.6016C925.609 59.0859 925.773 58.3203 925.773 57.3047C925.773 55.0703 925.469 53.6094 924.859 52.9219C924.234 52.2344 922.695 51.0859 920.242 49.4766C917.789 47.8516 916.164 46.6719 915.367 45.9375C914.57 45.2031 913.906 44.1875 913.375 42.8906C912.859 41.5938 912.602 39.9375 912.602 37.9219C912.602 35.0156 912.969 32.8906 913.703 31.5469C914.453 30.2031 915.656 29.1562 917.312 28.4062C918.969 27.6406 920.969 27.2578 923.312 27.2578C925.875 27.2578 928.055 27.6719 929.852 28.5C931.664 29.3281 932.859 30.375 933.438 31.6406C934.031 32.8906 934.328 35.0234 934.328 38.0391V39.5391ZM948.133 28.0547V66H938.266V28.0547H948.133ZM974.734 42.0234H964.867V38.5781C964.867 36.4062 964.773 35.0469 964.586 34.5C964.398 33.9531 963.953 33.6797 963.25 33.6797C962.641 33.6797 962.227 33.9141 962.008 34.3828C961.789 34.8516 961.68 36.0547 961.68 37.9922V56.2031C961.68 57.9062 961.789 59.0312 962.008 59.5781C962.227 60.1094 962.664 60.375 963.32 60.375C964.039 60.375 964.523 60.0703 964.773 59.4609C965.039 58.8516 965.172 57.6641 965.172 55.8984V51.3984H963.18V45.6328H974.734V66H968.523L967.609 63.2812C966.938 64.4531 966.086 65.3359 965.055 65.9297C964.039 66.5078 962.836 66.7969 961.445 66.7969C959.789 66.7969 958.234 66.3984 956.781 65.6016C955.344 64.7891 954.25 63.7891 953.5 62.6016C952.75 61.4141 952.281 60.1719 952.094 58.875C951.906 57.5625 951.812 55.6016 951.812 52.9922V41.7188C951.812 38.0938 952.008 35.4609 952.398 33.8203C952.789 32.1797 953.906 30.6797 955.75 29.3203C957.609 27.9453 960.008 27.2578 962.945 27.2578C965.836 27.2578 968.234 27.8516 970.141 29.0391C972.047 30.2266 973.289 31.6406 973.867 33.2812C974.445 34.9062 974.734 37.2734 974.734 40.3828V42.0234ZM1000.61 28.0547V66H991.961L986.828 48.75V66H978.578V28.0547H986.828L992.359 45.1406V28.0547H1000.61ZM1004.59 28.0547H1021.05V35.6484H1014.46V42.8438H1020.62V50.0625H1014.46V58.4062H1021.7V66H1004.59V28.0547ZM1024.56 28.0547H1031.55C1036.2 28.0547 1039.35 28.2344 1040.99 28.5938C1042.65 28.9531 1043.99 29.875 1045.02 31.3594C1046.07 32.8281 1046.59 35.1797 1046.59 38.4141C1046.59 41.3672 1046.23 43.3516 1045.49 44.3672C1044.76 45.3828 1043.31 45.9922 1041.16 46.1953C1043.11 46.6797 1044.42 47.3281 1045.09 48.1406C1045.77 48.9531 1046.18 49.7031 1046.34 50.3906C1046.51 51.0625 1046.59 52.9297 1046.59 55.9922V66H1037.43V53.3906C1037.43 51.3594 1037.27 50.1016 1036.94 49.6172C1036.62 49.1328 1035.79 48.8906 1034.43 48.8906V66H1024.56V28.0547ZM1034.43 34.5469V42.9844C1035.54 42.9844 1036.31 42.8359 1036.75 42.5391C1037.2 42.2266 1037.43 41.2344 1037.43 39.5625V37.4766C1037.43 36.2734 1037.21 35.4844 1036.77 35.1094C1036.35 34.7344 1035.57 34.5469 1034.43 34.5469Z" fill="#9E5BF6"/>
<rect x="12" width="520" height="93" rx="46.5" fill="white"/>
<path d="M88.9688 28.0547H98.9062C101.594 28.0547 103.656 28.2656 105.094 28.6875C106.547 29.1094 107.633 29.7188 108.352 30.5156C109.086 31.3125 109.578 32.2812 109.828 33.4219C110.094 34.5469 110.227 36.2969 110.227 38.6719V41.9766C110.227 44.3984 109.977 46.1641 109.477 47.2734C108.977 48.3828 108.055 49.2344 106.711 49.8281C105.383 50.4219 103.641 50.7188 101.484 50.7188H98.8359V66H88.9688V28.0547ZM98.8359 34.5469V44.2031C99.1172 44.2188 99.3594 44.2266 99.5625 44.2266C100.469 44.2266 101.094 44.0078 101.438 43.5703C101.797 43.1172 101.977 42.1875 101.977 40.7812V37.6641C101.977 36.3672 101.773 35.5234 101.367 35.1328C100.961 34.7422 100.117 34.5469 98.8359 34.5469ZM113.062 28.0547H120.047C124.703 28.0547 127.852 28.2344 129.492 28.5938C131.148 28.9531 132.492 29.875 133.523 31.3594C134.57 32.8281 135.094 35.1797 135.094 38.4141C135.094 41.3672 134.727 43.3516 133.992 44.3672C133.258 45.3828 131.812 45.9922 129.656 46.1953C131.609 46.6797 132.922 47.3281 133.594 48.1406C134.266 48.9531 134.68 49.7031 134.836 50.3906C135.008 51.0625 135.094 52.9297 135.094 55.9922V66H125.93V53.3906C125.93 51.3594 125.766 50.1016 125.438 49.6172C125.125 49.1328 124.289 48.8906 122.93 48.8906V66H113.062V28.0547ZM122.93 34.5469V42.9844C124.039 42.9844 124.812 42.8359 125.25 42.5391C125.703 42.2266 125.93 41.2344 125.93 39.5625V37.4766C125.93 36.2734 125.711 35.4844 125.273 35.1094C124.852 34.7344 124.07 34.5469 122.93 34.5469ZM161.484 50.2734C161.484 54.0859 161.391 56.7891 161.203 58.3828C161.031 59.9609 160.469 61.4062 159.516 62.7188C158.578 64.0312 157.305 65.0391 155.695 65.7422C154.086 66.4453 152.211 66.7969 150.07 66.7969C148.039 66.7969 146.211 66.4688 144.586 65.8125C142.977 65.1406 141.68 64.1406 140.695 62.8125C139.711 61.4844 139.125 60.0391 138.938 58.4766C138.75 56.9141 138.656 54.1797 138.656 50.2734V43.7812C138.656 39.9688 138.742 37.2734 138.914 35.6953C139.102 34.1016 139.664 32.6484 140.602 31.3359C141.555 30.0234 142.836 29.0156 144.445 28.3125C146.055 27.6094 147.93 27.2578 150.07 27.2578C152.102 27.2578 153.922 27.5938 155.531 28.2656C157.156 28.9219 158.461 29.9141 159.445 31.2422C160.43 32.5703 161.016 34.0156 161.203 35.5781C161.391 37.1406 161.484 39.875 161.484 43.7812V50.2734ZM151.617 37.8047C151.617 36.0391 151.516 34.9141 151.312 34.4297C151.125 33.9297 150.727 33.6797 150.117 33.6797C149.602 33.6797 149.203 33.8828 148.922 34.2891C148.656 34.6797 148.523 35.8516 148.523 37.8047V55.5234C148.523 57.7266 148.609 59.0859 148.781 59.6016C148.969 60.1172 149.391 60.375 150.047 60.375C150.719 60.375 151.148 60.0781 151.336 59.4844C151.523 58.8906 151.617 57.4766 151.617 55.2422V37.8047ZM165.188 28.0547H172.57C177.336 28.0547 180.555 28.2734 182.227 28.7109C183.914 29.1484 185.195 29.8672 186.07 30.8672C186.945 31.8672 187.492 32.9844 187.711 34.2188C187.93 35.4375 188.039 37.8438 188.039 41.4375V54.7266C188.039 58.1328 187.875 60.4141 187.547 61.5703C187.234 62.7109 186.68 63.6094 185.883 64.2656C185.086 64.9062 184.102 65.3594 182.93 65.625C181.758 65.875 179.992 66 177.633 66H165.188V28.0547ZM175.055 34.5469V59.5078C176.477 59.5078 177.352 59.2266 177.68 58.6641C178.008 58.0859 178.172 56.5312 178.172 54V39.2578C178.172 37.5391 178.117 36.4375 178.008 35.9531C177.898 35.4688 177.648 35.1172 177.258 34.8984C176.867 34.6641 176.133 34.5469 175.055 34.5469ZM214.148 28.0547V53.4141C214.148 56.2891 214.055 58.3125 213.867 59.4844C213.68 60.6406 213.125 61.8359 212.203 63.0703C211.281 64.2891 210.062 65.2188 208.547 65.8594C207.047 66.4844 205.273 66.7969 203.227 66.7969C200.961 66.7969 198.961 66.4219 197.227 65.6719C195.492 64.9219 194.195 63.9453 193.336 62.7422C192.477 61.5391 191.969 60.2734 191.812 58.9453C191.656 57.6016 191.578 54.7891 191.578 50.5078V28.0547H201.445V56.5078C201.445 58.1641 201.531 59.2266 201.703 59.6953C201.891 60.1484 202.258 60.375 202.805 60.375C203.43 60.375 203.828 60.125 204 59.625C204.188 59.1094 204.281 57.9062 204.281 56.0156V28.0547H214.148ZM241.008 44.6016H231.141V37.9922C231.141 36.0703 231.031 34.875 230.812 34.4062C230.609 33.9219 230.148 33.6797 229.43 33.6797C228.617 33.6797 228.102 33.9688 227.883 34.5469C227.664 35.125 227.555 36.375 227.555 38.2969V55.9219C227.555 57.7656 227.664 58.9688 227.883 59.5312C228.102 60.0938 228.594 60.375 229.359 60.375C230.094 60.375 230.57 60.0938 230.789 59.5312C231.023 58.9688 231.141 57.6484 231.141 55.5703V50.8125H241.008V52.2891C241.008 56.2109 240.727 58.9922 240.164 60.6328C239.617 62.2734 238.391 63.7109 236.484 64.9453C234.594 66.1797 232.258 66.7969 229.477 66.7969C226.586 66.7969 224.203 66.2734 222.328 65.2266C220.453 64.1797 219.211 62.7344 218.602 60.8906C217.992 59.0312 217.688 56.2422 217.688 52.5234V41.4375C217.688 38.7031 217.781 36.6562 217.969 35.2969C218.156 33.9219 218.711 32.6016 219.633 31.3359C220.57 30.0703 221.859 29.0781 223.5 28.3594C225.156 27.625 227.055 27.2578 229.195 27.2578C232.102 27.2578 234.5 27.8203 236.391 28.9453C238.281 30.0703 239.523 31.4766 240.117 33.1641C240.711 34.8359 241.008 37.4453 241.008 40.9922V44.6016ZM264.422 28.0547V35.6484H258.562V66H248.695V35.6484H242.859V28.0547H264.422ZM275.156 28.0547H282.539C287.305 28.0547 290.523 28.2734 292.195 28.7109C293.883 29.1484 295.164 29.8672 296.039 30.8672C296.914 31.8672 297.461 32.9844 297.68 34.2188C297.898 35.4375 298.008 37.8438 298.008 41.4375V54.7266C298.008 58.1328 297.844 60.4141 297.516 61.5703C297.203 62.7109 296.648 63.6094 295.852 64.2656C295.055 64.9062 294.07 65.3594 292.898 65.625C291.727 65.875 289.961 66 287.602 66H275.156V28.0547ZM285.023 34.5469V59.5078C286.445 59.5078 287.32 59.2266 287.648 58.6641C287.977 58.0859 288.141 56.5312 288.141 54V39.2578C288.141 37.5391 288.086 36.4375 287.977 35.9531C287.867 35.4688 287.617 35.1172 287.227 34.8984C286.836 34.6641 286.102 34.5469 285.023 34.5469ZM301.688 28.0547H318.141V35.6484H311.555V42.8438H317.719V50.0625H311.555V58.4062H318.797V66H301.688V28.0547ZM342.562 39.5391H333.398V36.7266C333.398 35.4141 333.281 34.5781 333.047 34.2188C332.812 33.8594 332.422 33.6797 331.875 33.6797C331.281 33.6797 330.828 33.9219 330.516 34.4062C330.219 34.8906 330.07 35.625 330.07 36.6094C330.07 37.875 330.242 38.8281 330.586 39.4688C330.914 40.1094 331.844 40.8828 333.375 41.7891C337.766 44.3984 340.531 46.5391 341.672 48.2109C342.812 49.8828 343.383 52.5781 343.383 56.2969C343.383 59 343.062 60.9922 342.422 62.2734C341.797 63.5547 340.578 64.6328 338.766 65.5078C336.953 66.3672 334.844 66.7969 332.438 66.7969C329.797 66.7969 327.539 66.2969 325.664 65.2969C323.805 64.2969 322.586 63.0234 322.008 61.4766C321.43 59.9297 321.141 57.7344 321.141 54.8906V52.4062H330.305V57.0234C330.305 58.4453 330.43 59.3594 330.68 59.7656C330.945 60.1719 331.406 60.375 332.062 60.375C332.719 60.375 333.203 60.1172 333.516 59.6016C333.844 59.0859 334.008 58.3203 334.008 57.3047C334.008 55.0703 333.703 53.6094 333.094 52.9219C332.469 52.2344 330.93 51.0859 328.477 49.4766C326.023 47.8516 324.398 46.6719 323.602 45.9375C322.805 45.2031 322.141 44.1875 321.609 42.8906C321.094 41.5938 320.836 39.9375 320.836 37.9219C320.836 35.0156 321.203 32.8906 321.938 31.5469C322.688 30.2031 323.891 29.1562 325.547 28.4062C327.203 27.6406 329.203 27.2578 331.547 27.2578C334.109 27.2578 336.289 27.6719 338.086 28.5C339.898 29.3281 341.094 30.375 341.672 31.6406C342.266 32.8906 342.562 35.0234 342.562 38.0391V39.5391ZM356.367 28.0547V66H346.5V28.0547H356.367ZM382.969 42.0234H373.102V38.5781C373.102 36.4062 373.008 35.0469 372.82 34.5C372.633 33.9531 372.188 33.6797 371.484 33.6797C370.875 33.6797 370.461 33.9141 370.242 34.3828C370.023 34.8516 369.914 36.0547 369.914 37.9922V56.2031C369.914 57.9062 370.023 59.0312 370.242 59.5781C370.461 60.1094 370.898 60.375 371.555 60.375C372.273 60.375 372.758 60.0703 373.008 59.4609C373.273 58.8516 373.406 57.6641 373.406 55.8984V51.3984H371.414V45.6328H382.969V66H376.758L375.844 63.2812C375.172 64.4531 374.32 65.3359 373.289 65.9297C372.273 66.5078 371.07 66.7969 369.68 66.7969C368.023 66.7969 366.469 66.3984 365.016 65.6016C363.578 64.7891 362.484 63.7891 361.734 62.6016C360.984 61.4141 360.516 60.1719 360.328 58.875C360.141 57.5625 360.047 55.6016 360.047 52.9922V41.7188C360.047 38.0938 360.242 35.4609 360.633 33.8203C361.023 32.1797 362.141 30.6797 363.984 29.3203C365.844 27.9453 368.242 27.2578 371.18 27.2578C374.07 27.2578 376.469 27.8516 378.375 29.0391C380.281 30.2266 381.523 31.6406 382.102 33.2812C382.68 34.9062 382.969 37.2734 382.969 40.3828V42.0234ZM408.844 28.0547V66H400.195L395.062 48.75V66H386.812V28.0547H395.062L400.594 45.1406V28.0547H408.844ZM412.828 28.0547H429.281V35.6484H422.695V42.8438H428.859V50.0625H422.695V58.4062H429.938V66H412.828V28.0547ZM432.797 28.0547H439.781C444.438 28.0547 447.586 28.2344 449.227 28.5938C450.883 28.9531 452.227 29.875 453.258 31.3594C454.305 32.8281 454.828 35.1797 454.828 38.4141C454.828 41.3672 454.461 43.3516 453.727 44.3672C452.992 45.3828 451.547 45.9922 449.391 46.1953C451.344 46.6797 452.656 47.3281 453.328 48.1406C454 48.9531 454.414 49.7031 454.57 50.3906C454.742 51.0625 454.828 52.9297 454.828 55.9922V66H445.664V53.3906C445.664 51.3594 445.5 50.1016 445.172 49.6172C444.859 49.1328 444.023 48.8906 442.664 48.8906V66H432.797V28.0547ZM442.664 34.5469V42.9844C443.773 42.9844 444.547 42.8359 444.984 42.5391C445.438 42.2266 445.664 41.2344 445.664 39.5625V37.4766C445.664 36.2734 445.445 35.4844 445.008 35.1094C444.586 34.7344 443.805 34.5469 442.664 34.5469Z" fill="#FF218C"/>
<rect x="1265" width="342" height="93" rx="46.5" fill="white"/>
<path d="M1379.09 28.0547L1374.71 66H1362.38C1361.26 60.1719 1360.27 53.5469 1359.41 46.125C1359.02 49.2969 1358.1 55.9219 1356.66 66H1344.41L1340 28.0547H1349.59L1350.59 41.2969L1351.62 54.0703C1351.98 47.4609 1352.89 38.7891 1354.34 28.0547H1364.61C1364.75 29.1641 1365.11 33.3359 1365.69 40.5703L1366.77 54.9844C1367.31 45.8125 1368.23 36.8359 1369.51 28.0547H1379.09ZM1381.06 28.0547H1397.52V35.6484H1390.93V42.8438H1397.09V50.0625H1390.93V58.4062H1398.17V66H1381.06V28.0547ZM1401.03 28.0547H1410.88C1413.98 28.0547 1416.34 28.2969 1417.93 28.7812C1419.54 29.2656 1420.84 30.25 1421.82 31.7344C1422.8 33.2031 1423.3 35.5781 1423.3 38.8594C1423.3 41.0781 1422.95 42.625 1422.24 43.5C1421.55 44.375 1420.19 45.0469 1418.14 45.5156C1420.42 46.0312 1421.97 46.8906 1422.78 48.0938C1423.59 49.2812 1424 51.1094 1424 53.5781V57.0938C1424 59.6562 1423.7 61.5547 1423.11 62.7891C1422.53 64.0234 1421.6 64.8672 1420.32 65.3203C1419.04 65.7734 1416.41 66 1412.45 66H1401.03V28.0547ZM1410.9 34.5469V42.9844C1411.32 42.9688 1411.65 42.9609 1411.88 42.9609C1412.85 42.9609 1413.47 42.7266 1413.73 42.2578C1414 41.7734 1414.13 40.4062 1414.13 38.1562C1414.13 36.9688 1414.02 36.1406 1413.8 35.6719C1413.59 35.1875 1413.3 34.8828 1412.94 34.7578C1412.59 34.6328 1411.91 34.5625 1410.9 34.5469ZM1410.9 48.8906V59.5078C1412.29 59.4609 1413.17 59.2422 1413.55 58.8516C1413.94 58.4609 1414.13 57.5 1414.13 55.9688V52.4297C1414.13 50.8047 1413.96 49.8203 1413.62 49.4766C1413.27 49.1328 1412.37 48.9375 1410.9 48.8906ZM1448.47 39.5391H1439.3V36.7266C1439.3 35.4141 1439.19 34.5781 1438.95 34.2188C1438.72 33.8594 1438.33 33.6797 1437.78 33.6797C1437.19 33.6797 1436.73 33.9219 1436.42 34.4062C1436.12 34.8906 1435.98 35.625 1435.98 36.6094C1435.98 37.875 1436.15 38.8281 1436.49 39.4688C1436.82 40.1094 1437.75 40.8828 1439.28 41.7891C1443.67 44.3984 1446.44 46.5391 1447.58 48.2109C1448.72 49.8828 1449.29 52.5781 1449.29 56.2969C1449.29 59 1448.97 60.9922 1448.33 62.2734C1447.7 63.5547 1446.48 64.6328 1444.67 65.5078C1442.86 66.3672 1440.75 66.7969 1438.34 66.7969C1435.7 66.7969 1433.45 66.2969 1431.57 65.2969C1429.71 64.2969 1428.49 63.0234 1427.91 61.4766C1427.34 59.9297 1427.05 57.7344 1427.05 54.8906V52.4062H1436.21V57.0234C1436.21 58.4453 1436.34 59.3594 1436.59 59.7656C1436.85 60.1719 1437.31 60.375 1437.97 60.375C1438.62 60.375 1439.11 60.1172 1439.42 59.6016C1439.75 59.0859 1439.91 58.3203 1439.91 57.3047C1439.91 55.0703 1439.61 53.6094 1439 52.9219C1438.38 52.2344 1436.84 51.0859 1434.38 49.4766C1431.93 47.8516 1430.3 46.6719 1429.51 45.9375C1428.71 45.2031 1428.05 44.1875 1427.52 42.8906C1427 41.5938 1426.74 39.9375 1426.74 37.9219C1426.74 35.0156 1427.11 32.8906 1427.84 31.5469C1428.59 30.2031 1429.8 29.1562 1431.45 28.4062C1433.11 27.6406 1435.11 27.2578 1437.45 27.2578C1440.02 27.2578 1442.2 27.6719 1443.99 28.5C1445.8 29.3281 1447 30.375 1447.58 31.6406C1448.17 32.8906 1448.47 35.0234 1448.47 38.0391V39.5391ZM1462.27 28.0547V66H1452.41V28.0547H1462.27ZM1486.11 28.0547V35.6484H1480.25V66H1470.38V35.6484H1464.55V28.0547H1486.11ZM1488.36 28.0547H1504.81V35.6484H1498.23V42.8438H1504.39V50.0625H1498.23V58.4062H1505.47V66H1488.36V28.0547ZM1529.23 39.5391H1520.07V36.7266C1520.07 35.4141 1519.95 34.5781 1519.72 34.2188C1519.48 33.8594 1519.09 33.6797 1518.55 33.6797C1517.95 33.6797 1517.5 33.9219 1517.19 34.4062C1516.89 34.8906 1516.74 35.625 1516.74 36.6094C1516.74 37.875 1516.91 38.8281 1517.26 39.4688C1517.59 40.1094 1518.52 40.8828 1520.05 41.7891C1524.44 44.3984 1527.2 46.5391 1528.34 48.2109C1529.48 49.8828 1530.05 52.5781 1530.05 56.2969C1530.05 59 1529.73 60.9922 1529.09 62.2734C1528.47 63.5547 1527.25 64.6328 1525.44 65.5078C1523.62 66.3672 1521.52 66.7969 1519.11 66.7969C1516.47 66.7969 1514.21 66.2969 1512.34 65.2969C1510.48 64.2969 1509.26 63.0234 1508.68 61.4766C1508.1 59.9297 1507.81 57.7344 1507.81 54.8906V52.4062H1516.98V57.0234C1516.98 58.4453 1517.1 59.3594 1517.35 59.7656C1517.62 60.1719 1518.08 60.375 1518.73 60.375C1519.39 60.375 1519.88 60.1172 1520.19 59.6016C1520.52 59.0859 1520.68 58.3203 1520.68 57.3047C1520.68 55.0703 1520.38 53.6094 1519.77 52.9219C1519.14 52.2344 1517.6 51.0859 1515.15 49.4766C1512.7 47.8516 1511.07 46.6719 1510.27 45.9375C1509.48 45.2031 1508.81 44.1875 1508.28 42.8906C1507.77 41.5938 1507.51 39.9375 1507.51 37.9219C1507.51 35.0156 1507.88 32.8906 1508.61 31.5469C1509.36 30.2031 1510.56 29.1562 1512.22 28.4062C1513.88 27.6406 1515.88 27.2578 1518.22 27.2578C1520.78 27.2578 1522.96 27.6719 1524.76 28.5C1526.57 29.3281 1527.77 30.375 1528.34 31.6406C1528.94 32.8906 1529.23 35.0234 1529.23 38.0391V39.5391Z" fill="#00CABC"/>
<rect x="2285" width="337" height="93" rx="46.5" fill="white"/>
<path d="M2384.4 28.0547V53.4141C2384.4 56.2891 2384.3 58.3125 2384.12 59.4844C2383.93 60.6406 2383.38 61.8359 2382.45 63.0703C2381.53 64.2891 2380.31 65.2188 2378.8 65.8594C2377.3 66.4844 2375.52 66.7969 2373.48 66.7969C2371.21 66.7969 2369.21 66.4219 2367.48 65.6719C2365.74 64.9219 2364.45 63.9453 2363.59 62.7422C2362.73 61.5391 2362.22 60.2734 2362.06 58.9453C2361.91 57.6016 2361.83 54.7891 2361.83 50.5078V28.0547H2371.7V56.5078C2371.7 58.1641 2371.78 59.2266 2371.95 59.6953C2372.14 60.1484 2372.51 60.375 2373.05 60.375C2373.68 60.375 2374.08 60.125 2374.25 59.625C2374.44 59.1094 2374.53 57.9062 2374.53 56.0156V28.0547H2384.4ZM2398.09 28.0547V66H2388.22V28.0547H2398.09ZM2410.53 28.0547H2417.91C2422.68 28.0547 2425.9 28.2734 2427.57 28.7109C2429.26 29.1484 2430.54 29.8672 2431.41 30.8672C2432.29 31.8672 2432.84 32.9844 2433.05 34.2188C2433.27 35.4375 2433.38 37.8438 2433.38 41.4375V54.7266C2433.38 58.1328 2433.22 60.4141 2432.89 61.5703C2432.58 62.7109 2432.02 63.6094 2431.23 64.2656C2430.43 64.9062 2429.45 65.3594 2428.27 65.625C2427.1 65.875 2425.34 66 2422.98 66H2410.53V28.0547ZM2420.4 34.5469V59.5078C2421.82 59.5078 2422.7 59.2266 2423.02 58.6641C2423.35 58.0859 2423.52 56.5312 2423.52 54V39.2578C2423.52 37.5391 2423.46 36.4375 2423.35 35.9531C2423.24 35.4688 2422.99 35.1172 2422.6 34.8984C2422.21 34.6641 2421.48 34.5469 2420.4 34.5469ZM2437.06 28.0547H2453.52V35.6484H2446.93V42.8438H2453.09V50.0625H2446.93V58.4062H2454.17V66H2437.06V28.0547ZM2477.94 39.5391H2468.77V36.7266C2468.77 35.4141 2468.66 34.5781 2468.42 34.2188C2468.19 33.8594 2467.8 33.6797 2467.25 33.6797C2466.66 33.6797 2466.2 33.9219 2465.89 34.4062C2465.59 34.8906 2465.45 35.625 2465.45 36.6094C2465.45 37.875 2465.62 38.8281 2465.96 39.4688C2466.29 40.1094 2467.22 40.8828 2468.75 41.7891C2473.14 44.3984 2475.91 46.5391 2477.05 48.2109C2478.19 49.8828 2478.76 52.5781 2478.76 56.2969C2478.76 59 2478.44 60.9922 2477.8 62.2734C2477.17 63.5547 2475.95 64.6328 2474.14 65.5078C2472.33 66.3672 2470.22 66.7969 2467.81 66.7969C2465.17 66.7969 2462.91 66.2969 2461.04 65.2969C2459.18 64.2969 2457.96 63.0234 2457.38 61.4766C2456.8 59.9297 2456.52 57.7344 2456.52 54.8906V52.4062H2465.68V57.0234C2465.68 58.4453 2465.8 59.3594 2466.05 59.7656C2466.32 60.1719 2466.78 60.375 2467.44 60.375C2468.09 60.375 2468.58 60.1172 2468.89 59.6016C2469.22 59.0859 2469.38 58.3203 2469.38 57.3047C2469.38 55.0703 2469.08 53.6094 2468.47 52.9219C2467.84 52.2344 2466.3 51.0859 2463.85 49.4766C2461.4 47.8516 2459.77 46.6719 2458.98 45.9375C2458.18 45.2031 2457.52 44.1875 2456.98 42.8906C2456.47 41.5938 2456.21 39.9375 2456.21 37.9219C2456.21 35.0156 2456.58 32.8906 2457.31 31.5469C2458.06 30.2031 2459.27 29.1562 2460.92 28.4062C2462.58 27.6406 2464.58 27.2578 2466.92 27.2578C2469.48 27.2578 2471.66 27.6719 2473.46 28.5C2475.27 29.3281 2476.47 30.375 2477.05 31.6406C2477.64 32.8906 2477.94 35.0234 2477.94 38.0391V39.5391ZM2491.74 28.0547V66H2481.88V28.0547H2491.74ZM2518.34 42.0234H2508.48V38.5781C2508.48 36.4062 2508.38 35.0469 2508.2 34.5C2508.01 33.9531 2507.56 33.6797 2506.86 33.6797C2506.25 33.6797 2505.84 33.9141 2505.62 34.3828C2505.4 34.8516 2505.29 36.0547 2505.29 37.9922V56.2031C2505.29 57.9062 2505.4 59.0312 2505.62 59.5781C2505.84 60.1094 2506.27 60.375 2506.93 60.375C2507.65 60.375 2508.13 60.0703 2508.38 59.4609C2508.65 58.8516 2508.78 57.6641 2508.78 55.8984V51.3984H2506.79V45.6328H2518.34V66H2512.13L2511.22 63.2812C2510.55 64.4531 2509.7 65.3359 2508.66 65.9297C2507.65 66.5078 2506.45 66.7969 2505.05 66.7969C2503.4 66.7969 2501.84 66.3984 2500.39 65.6016C2498.95 64.7891 2497.86 63.7891 2497.11 62.6016C2496.36 61.4141 2495.89 60.1719 2495.7 58.875C2495.52 57.5625 2495.42 55.6016 2495.42 52.9922V41.7188C2495.42 38.0938 2495.62 35.4609 2496.01 33.8203C2496.4 32.1797 2497.52 30.6797 2499.36 29.3203C2501.22 27.9453 2503.62 27.2578 2506.55 27.2578C2509.45 27.2578 2511.84 27.8516 2513.75 29.0391C2515.66 30.2266 2516.9 31.6406 2517.48 33.2812C2518.05 34.9062 2518.34 37.2734 2518.34 40.3828V42.0234ZM2544.22 28.0547V66H2535.57L2530.44 48.75V66H2522.19V28.0547H2530.44L2535.97 45.1406V28.0547H2544.22Z" fill="#FF4800"/>
<rect x="1748" width="396" height="93" rx="46.5" fill="white"/>
<path d="M1855.41 28.0547V66H1846.79V40.3828L1843.34 66H1837.23L1833.59 40.9688V66H1824.97V28.0547H1837.74C1838.12 30.3359 1838.52 33.0234 1838.94 36.1172L1840.3 45.7734L1842.55 28.0547H1855.41ZM1881.92 50.2734C1881.92 54.0859 1881.83 56.7891 1881.64 58.3828C1881.47 59.9609 1880.91 61.4062 1879.95 62.7188C1879.02 64.0312 1877.74 65.0391 1876.13 65.7422C1874.52 66.4453 1872.65 66.7969 1870.51 66.7969C1868.48 66.7969 1866.65 66.4688 1865.02 65.8125C1863.41 65.1406 1862.12 64.1406 1861.13 62.8125C1860.15 61.4844 1859.56 60.0391 1859.38 58.4766C1859.19 56.9141 1859.09 54.1797 1859.09 50.2734V43.7812C1859.09 39.9688 1859.18 37.2734 1859.35 35.6953C1859.54 34.1016 1860.1 32.6484 1861.04 31.3359C1861.99 30.0234 1863.27 29.0156 1864.88 28.3125C1866.49 27.6094 1868.37 27.2578 1870.51 27.2578C1872.54 27.2578 1874.36 27.5938 1875.97 28.2656C1877.59 28.9219 1878.9 29.9141 1879.88 31.2422C1880.87 32.5703 1881.45 34.0156 1881.64 35.5781C1881.83 37.1406 1881.92 39.875 1881.92 43.7812V50.2734ZM1872.05 37.8047C1872.05 36.0391 1871.95 34.9141 1871.75 34.4297C1871.56 33.9297 1871.16 33.6797 1870.55 33.6797C1870.04 33.6797 1869.64 33.8828 1869.36 34.2891C1869.09 34.6797 1868.96 35.8516 1868.96 37.8047V55.5234C1868.96 57.7266 1869.05 59.0859 1869.22 59.6016C1869.41 60.1172 1869.83 60.375 1870.48 60.375C1871.16 60.375 1871.59 60.0781 1871.77 59.4844C1871.96 58.8906 1872.05 57.4766 1872.05 55.2422V37.8047ZM1885.62 28.0547H1895.47C1898.58 28.0547 1900.93 28.2969 1902.52 28.7812C1904.13 29.2656 1905.43 30.25 1906.41 31.7344C1907.4 33.2031 1907.89 35.5781 1907.89 38.8594C1907.89 41.0781 1907.54 42.625 1906.84 43.5C1906.15 44.375 1904.78 45.0469 1902.73 45.5156C1905.02 46.0312 1906.56 46.8906 1907.38 48.0938C1908.19 49.2812 1908.59 51.1094 1908.59 53.5781V57.0938C1908.59 59.6562 1908.3 61.5547 1907.7 62.7891C1907.12 64.0234 1906.2 64.8672 1904.91 65.3203C1903.63 65.7734 1901.01 66 1897.04 66H1885.62V28.0547ZM1895.49 34.5469V42.9844C1895.91 42.9688 1896.24 42.9609 1896.48 42.9609C1897.45 42.9609 1898.06 42.7266 1898.33 42.2578C1898.59 41.7734 1898.73 40.4062 1898.73 38.1562C1898.73 36.9688 1898.62 36.1406 1898.4 35.6719C1898.18 35.1875 1897.89 34.8828 1897.53 34.7578C1897.19 34.6328 1896.51 34.5625 1895.49 34.5469ZM1895.49 48.8906V59.5078C1896.88 59.4609 1897.77 59.2422 1898.14 58.8516C1898.53 58.4609 1898.73 57.5 1898.73 55.9688V52.4297C1898.73 50.8047 1898.55 49.8203 1898.21 49.4766C1897.87 49.1328 1896.96 48.9375 1895.49 48.8906ZM1922.02 28.0547V66H1912.16V28.0547H1922.02ZM1935.85 28.0547V58.4062H1941.85V66H1925.98V28.0547H1935.85ZM1944.27 28.0547H1960.72V35.6484H1954.13V42.8438H1960.3V50.0625H1954.13V58.4062H1961.38V66H1944.27V28.0547ZM1989.76 28.0547L1995.41 66H1985.3L1984.81 59.1797H1981.27L1980.69 66H1970.47L1975.48 28.0547H1989.76ZM1984.53 52.4531C1984.03 48.1562 1983.53 42.8516 1983.03 36.5391C1982.03 43.7891 1981.41 49.0938 1981.16 52.4531H1984.53ZM1997.09 28.0547H2007.03C2009.72 28.0547 2011.78 28.2656 2013.22 28.6875C2014.67 29.1094 2015.76 29.7188 2016.48 30.5156C2017.21 31.3125 2017.7 32.2812 2017.95 33.4219C2018.22 34.5469 2018.35 36.2969 2018.35 38.6719V41.9766C2018.35 44.3984 2018.1 46.1641 2017.6 47.2734C2017.1 48.3828 2016.18 49.2344 2014.84 49.8281C2013.51 50.4219 2011.77 50.7188 2009.61 50.7188H2006.96V66H1997.09V28.0547ZM2006.96 34.5469V44.2031C2007.24 44.2188 2007.48 44.2266 2007.69 44.2266C2008.59 44.2266 2009.22 44.0078 2009.56 43.5703C2009.92 43.1172 2010.1 42.1875 2010.1 40.7812V37.6641C2010.1 36.3672 2009.9 35.5234 2009.49 35.1328C2009.09 34.7422 2008.24 34.5469 2006.96 34.5469ZM2021.19 28.0547H2031.12C2033.81 28.0547 2035.88 28.2656 2037.31 28.6875C2038.77 29.1094 2039.85 29.7188 2040.57 30.5156C2041.3 31.3125 2041.8 32.2812 2042.05 33.4219C2042.31 34.5469 2042.45 36.2969 2042.45 38.6719V41.9766C2042.45 44.3984 2042.2 46.1641 2041.7 47.2734C2041.2 48.3828 2040.27 49.2344 2038.93 49.8281C2037.6 50.4219 2035.86 50.7188 2033.7 50.7188H2031.05V66H2021.19V28.0547ZM2031.05 34.5469V44.2031C2031.34 44.2188 2031.58 44.2266 2031.78 44.2266C2032.69 44.2266 2033.31 44.0078 2033.66 43.5703C2034.02 43.1172 2034.2 42.1875 2034.2 40.7812V37.6641C2034.2 36.3672 2033.99 35.5234 2033.59 35.1328C2033.18 34.7422 2032.34 34.5469 2031.05 34.5469ZM2066.19 39.5391H2057.02V36.7266C2057.02 35.4141 2056.91 34.5781 2056.67 34.2188C2056.44 33.8594 2056.05 33.6797 2055.5 33.6797C2054.91 33.6797 2054.45 33.9219 2054.14 34.4062C2053.84 34.8906 2053.7 35.625 2053.7 36.6094C2053.7 37.875 2053.87 38.8281 2054.21 39.4688C2054.54 40.1094 2055.47 40.8828 2057 41.7891C2061.39 44.3984 2064.16 46.5391 2065.3 48.2109C2066.44 49.8828 2067.01 52.5781 2067.01 56.2969C2067.01 59 2066.69 60.9922 2066.05 62.2734C2065.42 63.5547 2064.2 64.6328 2062.39 65.5078C2060.58 66.3672 2058.47 66.7969 2056.06 66.7969C2053.42 66.7969 2051.16 66.2969 2049.29 65.2969C2047.43 64.2969 2046.21 63.0234 2045.63 61.4766C2045.05 59.9297 2044.77 57.7344 2044.77 54.8906V52.4062H2053.93V57.0234C2053.93 58.4453 2054.05 59.3594 2054.3 59.7656C2054.57 60.1719 2055.03 60.375 2055.69 60.375C2056.34 60.375 2056.83 60.1172 2057.14 59.6016C2057.47 59.0859 2057.63 58.3203 2057.63 57.3047C2057.63 55.0703 2057.33 53.6094 2056.72 52.9219C2056.09 52.2344 2054.55 51.0859 2052.1 49.4766C2049.65 47.8516 2048.02 46.6719 2047.23 45.9375C2046.43 45.2031 2045.77 44.1875 2045.23 42.8906C2044.72 41.5938 2044.46 39.9375 2044.46 37.9219C2044.46 35.0156 2044.83 32.8906 2045.56 31.5469C2046.31 30.2031 2047.52 29.1562 2049.17 28.4062C2050.83 27.6406 2052.83 27.2578 2055.17 27.2578C2057.73 27.2578 2059.91 27.6719 2061.71 28.5C2063.52 29.3281 2064.72 30.375 2065.3 31.6406C2065.89 32.8906 2066.19 35.0234 2066.19 38.0391V39.5391Z" fill="#4E55FF"/>
<rect x="2763" width="272" height="93" rx="46.5" fill="white"/>
<path d="M2849.84 28.0547V58.4062H2855.84V66H2839.97V28.0547H2849.84ZM2880.05 50.2734C2880.05 54.0859 2879.95 56.7891 2879.77 58.3828C2879.59 59.9609 2879.03 61.4062 2878.08 62.7188C2877.14 64.0312 2875.87 65.0391 2874.26 65.7422C2872.65 66.4453 2870.77 66.7969 2868.63 66.7969C2866.6 66.7969 2864.77 66.4688 2863.15 65.8125C2861.54 65.1406 2860.24 64.1406 2859.26 62.8125C2858.27 61.4844 2857.69 60.0391 2857.5 58.4766C2857.31 56.9141 2857.22 54.1797 2857.22 50.2734V43.7812C2857.22 39.9688 2857.3 37.2734 2857.48 35.6953C2857.66 34.1016 2858.23 32.6484 2859.16 31.3359C2860.12 30.0234 2861.4 29.0156 2863.01 28.3125C2864.62 27.6094 2866.49 27.2578 2868.63 27.2578C2870.66 27.2578 2872.48 27.5938 2874.09 28.2656C2875.72 28.9219 2877.02 29.9141 2878.01 31.2422C2878.99 32.5703 2879.58 34.0156 2879.77 35.5781C2879.95 37.1406 2880.05 39.875 2880.05 43.7812V50.2734ZM2870.18 37.8047C2870.18 36.0391 2870.08 34.9141 2869.88 34.4297C2869.69 33.9297 2869.29 33.6797 2868.68 33.6797C2868.16 33.6797 2867.77 33.8828 2867.48 34.2891C2867.22 34.6797 2867.09 35.8516 2867.09 37.8047V55.5234C2867.09 57.7266 2867.17 59.0859 2867.34 59.6016C2867.53 60.1172 2867.95 60.375 2868.61 60.375C2869.28 60.375 2869.71 60.0781 2869.9 59.4844C2870.09 58.8906 2870.18 57.4766 2870.18 55.2422V37.8047ZM2906.39 42.0234H2896.52V38.5781C2896.52 36.4062 2896.43 35.0469 2896.24 34.5C2896.05 33.9531 2895.61 33.6797 2894.91 33.6797C2894.3 33.6797 2893.88 33.9141 2893.66 34.3828C2893.45 34.8516 2893.34 36.0547 2893.34 37.9922V56.2031C2893.34 57.9062 2893.45 59.0312 2893.66 59.5781C2893.88 60.1094 2894.32 60.375 2894.98 60.375C2895.7 60.375 2896.18 60.0703 2896.43 59.4609C2896.7 58.8516 2896.83 57.6641 2896.83 55.8984V51.3984H2894.84V45.6328H2906.39V66H2900.18L2899.27 63.2812C2898.59 64.4531 2897.74 65.3359 2896.71 65.9297C2895.7 66.5078 2894.49 66.7969 2893.1 66.7969C2891.45 66.7969 2889.89 66.3984 2888.44 65.6016C2887 64.7891 2885.91 63.7891 2885.16 62.6016C2884.41 61.4141 2883.94 60.1719 2883.75 58.875C2883.56 57.5625 2883.47 55.6016 2883.47 52.9922V41.7188C2883.47 38.0938 2883.66 35.4609 2884.05 33.8203C2884.45 32.1797 2885.56 30.6797 2887.41 29.3203C2889.27 27.9453 2891.66 27.2578 2894.6 27.2578C2897.49 27.2578 2899.89 27.8516 2901.8 29.0391C2903.7 30.2266 2904.95 31.6406 2905.52 33.2812C2906.1 34.9062 2906.39 37.2734 2906.39 40.3828V42.0234ZM2932.78 50.2734C2932.78 54.0859 2932.69 56.7891 2932.5 58.3828C2932.33 59.9609 2931.77 61.4062 2930.81 62.7188C2929.88 64.0312 2928.6 65.0391 2926.99 65.7422C2925.38 66.4453 2923.51 66.7969 2921.37 66.7969C2919.34 66.7969 2917.51 66.4688 2915.88 65.8125C2914.27 65.1406 2912.98 64.1406 2911.99 62.8125C2911.01 61.4844 2910.42 60.0391 2910.23 58.4766C2910.05 56.9141 2909.95 54.1797 2909.95 50.2734V43.7812C2909.95 39.9688 2910.04 37.2734 2910.21 35.6953C2910.4 34.1016 2910.96 32.6484 2911.9 31.3359C2912.85 30.0234 2914.13 29.0156 2915.74 28.3125C2917.35 27.6094 2919.23 27.2578 2921.37 27.2578C2923.4 27.2578 2925.22 27.5938 2926.83 28.2656C2928.45 28.9219 2929.76 29.9141 2930.74 31.2422C2931.73 32.5703 2932.31 34.0156 2932.5 35.5781C2932.69 37.1406 2932.78 39.875 2932.78 43.7812V50.2734ZM2922.91 37.8047C2922.91 36.0391 2922.81 34.9141 2922.61 34.4297C2922.42 33.9297 2922.02 33.6797 2921.41 33.6797C2920.9 33.6797 2920.5 33.8828 2920.22 34.2891C2919.95 34.6797 2919.82 35.8516 2919.82 37.8047V55.5234C2919.82 57.7266 2919.91 59.0859 2920.08 59.6016C2920.27 60.1172 2920.69 60.375 2921.34 60.375C2922.02 60.375 2922.45 60.0781 2922.63 59.4844C2922.82 58.8906 2922.91 57.4766 2922.91 55.2422V37.8047ZM2957.39 39.5391H2948.23V36.7266C2948.23 35.4141 2948.11 34.5781 2947.88 34.2188C2947.64 33.8594 2947.25 33.6797 2946.7 33.6797C2946.11 33.6797 2945.66 33.9219 2945.34 34.4062C2945.05 34.8906 2944.9 35.625 2944.9 36.6094C2944.9 37.875 2945.07 38.8281 2945.41 39.4688C2945.74 40.1094 2946.67 40.8828 2948.2 41.7891C2952.59 44.3984 2955.36 46.5391 2956.5 48.2109C2957.64 49.8828 2958.21 52.5781 2958.21 56.2969C2958.21 59 2957.89 60.9922 2957.25 62.2734C2956.62 63.5547 2955.41 64.6328 2953.59 65.5078C2951.78 66.3672 2949.67 66.7969 2947.27 66.7969C2944.62 66.7969 2942.37 66.2969 2940.49 65.2969C2938.63 64.2969 2937.41 63.0234 2936.84 61.4766C2936.26 59.9297 2935.97 57.7344 2935.97 54.8906V52.4062H2945.13V57.0234C2945.13 58.4453 2945.26 59.3594 2945.51 59.7656C2945.77 60.1719 2946.23 60.375 2946.89 60.375C2947.55 60.375 2948.03 60.1172 2948.34 59.6016C2948.67 59.0859 2948.84 58.3203 2948.84 57.3047C2948.84 55.0703 2948.53 53.6094 2947.92 52.9219C2947.3 52.2344 2945.76 51.0859 2943.3 49.4766C2940.85 47.8516 2939.23 46.6719 2938.43 45.9375C2937.63 45.2031 2936.97 44.1875 2936.44 42.8906C2935.92 41.5938 2935.66 39.9375 2935.66 37.9219C2935.66 35.0156 2936.03 32.8906 2936.77 31.5469C2937.52 30.2031 2938.72 29.1562 2940.38 28.4062C2942.03 27.6406 2944.03 27.2578 2946.38 27.2578C2948.94 27.2578 2951.12 27.6719 2952.91 28.5C2954.73 29.3281 2955.92 30.375 2956.5 31.6406C2957.09 32.8906 2957.39 35.0234 2957.39 38.0391V39.5391Z" fill="#6ED75C"/>
<path d="M1189.17 4.7648C1191.7 2.49813 1192.97 1.3648 1194.5 1.3648C1196.03 1.3648 1197.3 2.49813 1199.83 4.7648L1200.73 5.56658C1202.28 6.95133 1203.05 7.6437 1204.02 7.88186C1204.98 8.12003 1205.99 7.86697 1208.01 7.36086L1209.17 7.06781C1212.47 6.23935 1214.12 5.82512 1215.48 6.53477C1216.83 7.24441 1217.42 8.83721 1218.62 12.0228L1219.04 13.1497C1219.77 15.0958 1220.13 16.0689 1220.87 16.7288C1221.62 17.3888 1222.63 17.633 1224.65 18.1214L1225.82 18.4043C1229.13 19.2038 1230.78 19.6036 1231.65 20.8603C1232.51 22.117 1232.3 23.8044 1231.88 27.1791L1231.73 28.3729C1231.47 30.4346 1231.34 31.4655 1231.69 32.396C1232.04 33.3265 1232.82 34.0121 1234.38 35.3832L1235.29 36.1771C1237.84 38.4215 1239.12 39.5437 1239.31 41.0596C1239.49 42.5754 1238.52 43.9708 1236.57 46.7617L1235.89 47.7488C1234.7 49.4538 1234.1 50.3063 1233.98 51.2942C1233.86 52.2822 1234.24 53.252 1234.98 55.1917L1235.41 56.3148C1236.63 59.4898 1237.24 61.0774 1236.7 62.5052C1236.16 63.933 1234.65 64.7167 1231.63 66.2842L1230.56 66.8387C1228.72 67.7963 1227.8 68.2751 1227.23 69.0941C1226.67 69.9132 1226.55 70.9451 1226.31 73.009L1226.17 74.204C1225.77 77.5824 1225.57 79.2716 1224.43 80.2842C1223.29 81.2968 1221.59 81.2893 1218.19 81.2745L1216.98 81.2692C1214.9 81.2601 1213.87 81.2555 1212.98 81.718C1212.1 82.1805 1211.52 83.0382 1210.34 84.7535L1209.66 85.7466C1207.74 88.5544 1206.78 89.9582 1205.3 90.3237C1203.82 90.6891 1202.32 89.8922 1199.31 88.2983L1198.25 87.7345C1196.41 86.7608 1195.5 86.2739 1194.5 86.2739C1193.5 86.2739 1192.59 86.7608 1190.75 87.7345L1189.69 88.2983C1186.68 89.8922 1185.18 90.6891 1183.7 90.3237C1182.22 89.9582 1181.26 88.5544 1179.34 85.7466L1178.66 84.7535C1177.48 83.0382 1176.9 82.1805 1176.02 81.718C1175.13 81.2555 1174.1 81.2601 1172.02 81.2692L1170.81 81.2745C1167.41 81.2893 1165.71 81.2968 1164.57 80.2842C1163.43 79.2716 1163.23 77.5824 1162.83 74.204L1162.69 73.009C1162.45 70.9451 1162.33 69.9132 1161.77 69.0941C1161.2 68.2751 1160.28 67.7963 1158.44 66.8387L1157.37 66.2842C1154.35 64.7167 1152.84 63.933 1152.3 62.5052C1151.76 61.0774 1152.37 59.4898 1153.59 56.3148L1154.02 55.1917C1154.76 53.252 1155.14 52.2822 1155.02 51.2942C1154.9 50.3063 1154.3 49.4538 1153.11 47.7488L1152.43 46.7616C1150.48 43.9708 1149.51 42.5754 1149.69 41.0596C1149.88 39.5437 1151.16 38.4215 1153.71 36.1771L1154.62 35.3832C1156.18 34.0121 1156.96 33.3265 1157.31 32.396C1157.66 31.4655 1157.53 30.4346 1157.27 28.3729L1157.12 27.1791C1156.7 23.8044 1156.49 22.117 1157.35 20.8603C1158.22 19.6036 1159.87 19.2038 1163.18 18.4043L1164.35 18.1214C1166.37 17.633 1167.38 17.3888 1168.13 16.7288C1168.87 16.0689 1169.23 15.0958 1169.96 13.1497L1170.38 12.0228C1171.58 8.83721 1172.17 7.24441 1173.52 6.53477C1174.88 5.82512 1176.53 6.23935 1179.83 7.06781L1180.99 7.36086C1183.01 7.86697 1184.02 8.12003 1184.98 7.88186C1185.95 7.6437 1186.72 6.95132 1188.27 5.56658L1189.17 4.7648Z" fill="white"/>
<path d="M1194.5 28C1197.29 36.8099 1204.19 43.7116 1213 46.5C1204.19 49.2884 1197.29 56.1901 1194.5 65C1191.71 56.1901 1184.81 49.2884 1176 46.5C1184.81 43.7116 1191.71 36.8099 1194.5 28Z" fill="#9E5BF6"/>
<path d="M597.169 4.7648C599.705 2.49813 600.973 1.3648 602.5 1.3648C604.027 1.3648 605.295 2.49813 607.831 4.7648L608.728 5.56658C610.278 6.95133 611.052 7.6437 612.019 7.88186C612.985 8.12003 613.992 7.86697 616.008 7.36086L617.175 7.06781C620.474 6.23935 622.123 5.82512 623.475 6.53477C624.827 7.24441 625.424 8.83721 626.616 12.0228L627.038 13.1497C627.766 15.0958 628.13 16.0689 628.875 16.7288C629.62 17.3888 630.63 17.633 632.65 18.1214L633.819 18.4043C637.125 19.2038 638.778 19.6036 639.646 20.8603C640.513 22.117 640.301 23.8044 639.876 27.1791L639.726 28.3729C639.466 30.4346 639.336 31.4655 639.689 32.396C640.042 33.3265 640.823 34.0121 642.384 35.3832L643.288 36.1771C645.844 38.4215 647.122 39.5437 647.306 41.0596C647.49 42.5754 646.518 43.9708 644.574 46.7617L643.886 47.7488C642.698 49.4538 642.104 50.3063 641.984 51.2942C641.864 52.2822 642.237 53.252 642.982 55.1917L643.414 56.3148C644.634 59.4898 645.244 61.0774 644.702 62.5052C644.161 63.933 642.651 64.7167 639.633 66.2842L638.565 66.8387C636.721 67.7963 635.799 68.2751 635.233 69.0941C634.668 69.9132 634.547 70.9451 634.306 73.009L634.166 74.204C633.771 77.5824 633.573 79.2716 632.43 80.2842C631.287 81.2968 629.587 81.2893 626.185 81.2745L624.982 81.2692C622.904 81.2601 621.865 81.2555 620.984 81.718C620.103 82.1805 619.516 83.0382 618.343 84.7535L617.664 85.7466C615.744 88.5544 614.784 89.9582 613.302 90.3237C611.819 90.6891 610.316 89.8922 607.312 88.2983L606.249 87.7345C604.413 86.7608 603.495 86.2739 602.5 86.2739C601.505 86.2739 600.587 86.7608 598.751 87.7345L597.688 88.2983C594.684 89.8922 593.181 90.6891 591.698 90.3237C590.216 89.9582 589.256 88.5544 587.336 85.7466L586.657 84.7535C585.484 83.0382 584.897 82.1805 584.016 81.718C583.135 81.2555 582.096 81.2601 580.018 81.2692L578.815 81.2745C575.413 81.2893 573.713 81.2968 572.57 80.2842C571.427 79.2716 571.229 77.5824 570.834 74.204L570.694 73.009C570.453 70.9451 570.332 69.9132 569.767 69.0941C569.201 68.2751 568.279 67.7963 566.435 66.8387L565.367 66.2842C562.349 64.7167 560.839 63.933 560.298 62.5052C559.756 61.0774 560.366 59.4898 561.586 56.3148L562.018 55.1917C562.763 53.252 563.136 52.2822 563.016 51.2942C562.896 50.3063 562.302 49.4538 561.114 47.7488L560.426 46.7616C558.482 43.9708 557.51 42.5754 557.694 41.0596C557.878 39.5437 559.156 38.4215 561.712 36.1771L562.616 35.3832C564.177 34.0121 564.958 33.3265 565.311 32.396C565.664 31.4655 565.534 30.4346 565.274 28.3729L565.124 27.1791C564.699 23.8044 564.487 22.117 565.354 20.8603C566.222 19.6036 567.875 19.2038 571.181 18.4043L572.35 18.1214C574.37 17.633 575.38 17.3888 576.125 16.7288C576.87 16.0689 577.234 15.0958 577.962 13.1497L578.384 12.0228C579.576 8.83721 580.173 7.24441 581.525 6.53477C582.877 5.82512 584.526 6.23935 587.825 7.06781L588.992 7.36086C591.008 7.86697 592.015 8.12003 592.981 7.88186C593.948 7.6437 594.722 6.95132 596.272 5.56658L597.169 4.7648Z" fill="white"/>
<path d="M602.5 28C605.288 36.8099 612.19 43.7116 621 46.5C612.19 49.2884 605.288 56.1901 602.5 65C599.712 56.1901 592.81 49.2884 584 46.5C592.81 43.7116 599.712 36.8099 602.5 28Z" fill="#FF218C"/>
<path d="M1672.17 4.7648C1674.7 2.49813 1675.97 1.3648 1677.5 1.3648C1679.03 1.3648 1680.3 2.49813 1682.83 4.7648L1683.73 5.56658C1685.28 6.95133 1686.05 7.6437 1687.02 7.88186C1687.98 8.12003 1688.99 7.86697 1691.01 7.36086L1692.17 7.06781C1695.47 6.23935 1697.12 5.82512 1698.48 6.53477C1699.83 7.24441 1700.42 8.83721 1701.62 12.0228L1702.04 13.1497C1702.77 15.0958 1703.13 16.0689 1703.87 16.7288C1704.62 17.3888 1705.63 17.633 1707.65 18.1214L1708.82 18.4043C1712.13 19.2038 1713.78 19.6036 1714.65 20.8603C1715.51 22.117 1715.3 23.8044 1714.88 27.1791L1714.73 28.3729C1714.47 30.4346 1714.34 31.4655 1714.69 32.396C1715.04 33.3265 1715.82 34.0121 1717.38 35.3832L1718.29 36.1771C1720.84 38.4215 1722.12 39.5437 1722.31 41.0596C1722.49 42.5754 1721.52 43.9708 1719.57 46.7617L1718.89 47.7488C1717.7 49.4538 1717.1 50.3063 1716.98 51.2942C1716.86 52.2822 1717.24 53.252 1717.98 55.1917L1718.41 56.3148C1719.63 59.4898 1720.24 61.0774 1719.7 62.5052C1719.16 63.933 1717.65 64.7167 1714.63 66.2842L1713.56 66.8387C1711.72 67.7963 1710.8 68.2751 1710.23 69.0941C1709.67 69.9132 1709.55 70.9451 1709.31 73.009L1709.17 74.204C1708.77 77.5824 1708.57 79.2716 1707.43 80.2842C1706.29 81.2968 1704.59 81.2893 1701.19 81.2745L1699.98 81.2692C1697.9 81.2601 1696.87 81.2555 1695.98 81.718C1695.1 82.1805 1694.52 83.0382 1693.34 84.7535L1692.66 85.7466C1690.74 88.5544 1689.78 89.9582 1688.3 90.3237C1686.82 90.6891 1685.32 89.8922 1682.31 88.2983L1681.25 87.7345C1679.41 86.7608 1678.5 86.2739 1677.5 86.2739C1676.5 86.2739 1675.59 86.7608 1673.75 87.7345L1672.69 88.2983C1669.68 89.8922 1668.18 90.6891 1666.7 90.3237C1665.22 89.9582 1664.26 88.5544 1662.34 85.7466L1661.66 84.7535C1660.48 83.0382 1659.9 82.1805 1659.02 81.718C1658.13 81.2555 1657.1 81.2601 1655.02 81.2692L1653.81 81.2745C1650.41 81.2893 1648.71 81.2968 1647.57 80.2842C1646.43 79.2716 1646.23 77.5824 1645.83 74.204L1645.69 73.009C1645.45 70.9451 1645.33 69.9132 1644.77 69.0941C1644.2 68.2751 1643.28 67.7963 1641.44 66.8387L1640.37 66.2842C1637.35 64.7167 1635.84 63.933 1635.3 62.5052C1634.76 61.0774 1635.37 59.4898 1636.59 56.3148L1637.02 55.1917C1637.76 53.252 1638.14 52.2822 1638.02 51.2942C1637.9 50.3063 1637.3 49.4538 1636.11 47.7488L1635.43 46.7616C1633.48 43.9708 1632.51 42.5754 1632.69 41.0596C1632.88 39.5437 1634.16 38.4215 1636.71 36.1771L1637.62 35.3832C1639.18 34.0121 1639.96 33.3265 1640.31 32.396C1640.66 31.4655 1640.53 30.4346 1640.27 28.3729L1640.12 27.1791C1639.7 23.8044 1639.49 22.117 1640.35 20.8603C1641.22 19.6036 1642.87 19.2038 1646.18 18.4043L1647.35 18.1214C1649.37 17.633 1650.38 17.3888 1651.13 16.7288C1651.87 16.0689 1652.23 15.0958 1652.96 13.1497L1653.38 12.0228C1654.58 8.83721 1655.17 7.24441 1656.52 6.53477C1657.88 5.82512 1659.53 6.23935 1662.83 7.06781L1663.99 7.36086C1666.01 7.86697 1667.02 8.12003 1667.98 7.88186C1668.95 7.6437 1669.72 6.95132 1671.27 5.56658L1672.17 4.7648Z" fill="white"/>
<path d="M1677.5 28C1680.29 36.8099 1687.19 43.7116 1696 46.5C1687.19 49.2884 1680.29 56.1901 1677.5 65C1674.71 56.1901 1667.81 49.2884 1659 46.5C1667.81 43.7116 1674.71 36.8099 1677.5 28Z" fill="#00CABC"/>
<path d="M2209.17 4.7648C2211.7 2.49813 2212.97 1.3648 2214.5 1.3648C2216.03 1.3648 2217.3 2.49813 2219.83 4.7648L2220.73 5.56658C2222.28 6.95133 2223.05 7.6437 2224.02 7.88186C2224.98 8.12003 2225.99 7.86697 2228.01 7.36086L2229.17 7.06781C2232.47 6.23935 2234.12 5.82512 2235.48 6.53477C2236.83 7.24441 2237.42 8.83721 2238.62 12.0228L2239.04 13.1497C2239.77 15.0958 2240.13 16.0689 2240.87 16.7288C2241.62 17.3888 2242.63 17.633 2244.65 18.1214L2245.82 18.4043C2249.13 19.2038 2250.78 19.6036 2251.65 20.8603C2252.51 22.117 2252.3 23.8044 2251.88 27.1791L2251.73 28.3729C2251.47 30.4346 2251.34 31.4655 2251.69 32.396C2252.04 33.3265 2252.82 34.0121 2254.38 35.3832L2255.29 36.1771C2257.84 38.4215 2259.12 39.5437 2259.31 41.0596C2259.49 42.5754 2258.52 43.9708 2256.57 46.7617L2255.89 47.7488C2254.7 49.4538 2254.1 50.3063 2253.98 51.2942C2253.86 52.2822 2254.24 53.252 2254.98 55.1917L2255.41 56.3148C2256.63 59.4898 2257.24 61.0774 2256.7 62.5052C2256.16 63.933 2254.65 64.7167 2251.63 66.2842L2250.56 66.8387C2248.72 67.7963 2247.8 68.2751 2247.23 69.0941C2246.67 69.9132 2246.55 70.9451 2246.31 73.009L2246.17 74.204C2245.77 77.5824 2245.57 79.2716 2244.43 80.2842C2243.29 81.2968 2241.59 81.2893 2238.19 81.2745L2236.98 81.2692C2234.9 81.2601 2233.87 81.2555 2232.98 81.718C2232.1 82.1805 2231.52 83.0382 2230.34 84.7535L2229.66 85.7466C2227.74 88.5544 2226.78 89.9582 2225.3 90.3237C2223.82 90.6891 2222.32 89.8922 2219.31 88.2983L2218.25 87.7345C2216.41 86.7608 2215.5 86.2739 2214.5 86.2739C2213.5 86.2739 2212.59 86.7608 2210.75 87.7345L2209.69 88.2983C2206.68 89.8922 2205.18 90.6891 2203.7 90.3237C2202.22 89.9582 2201.26 88.5544 2199.34 85.7466L2198.66 84.7535C2197.48 83.0382 2196.9 82.1805 2196.02 81.718C2195.13 81.2555 2194.1 81.2601 2192.02 81.2692L2190.81 81.2745C2187.41 81.2893 2185.71 81.2968 2184.57 80.2842C2183.43 79.2716 2183.23 77.5824 2182.83 74.204L2182.69 73.009C2182.45 70.9451 2182.33 69.9132 2181.77 69.0941C2181.2 68.2751 2180.28 67.7963 2178.44 66.8387L2177.37 66.2842C2174.35 64.7167 2172.84 63.933 2172.3 62.5052C2171.76 61.0774 2172.37 59.4898 2173.59 56.3148L2174.02 55.1917C2174.76 53.252 2175.14 52.2822 2175.02 51.2942C2174.9 50.3063 2174.3 49.4538 2173.11 47.7488L2172.43 46.7616C2170.48 43.9708 2169.51 42.5754 2169.69 41.0596C2169.88 39.5437 2171.16 38.4215 2173.71 36.1771L2174.62 35.3832C2176.18 34.0121 2176.96 33.3265 2177.31 32.396C2177.66 31.4655 2177.53 30.4346 2177.27 28.3729L2177.12 27.1791C2176.7 23.8044 2176.49 22.117 2177.35 20.8603C2178.22 19.6036 2179.87 19.2038 2183.18 18.4043L2184.35 18.1214C2186.37 17.633 2187.38 17.3888 2188.13 16.7288C2188.87 16.0689 2189.23 15.0958 2189.96 13.1497L2190.38 12.0228C2191.58 8.83721 2192.17 7.24441 2193.52 6.53477C2194.88 5.82512 2196.53 6.23935 2199.83 7.06781L2200.99 7.36086C2203.01 7.86697 2204.02 8.12003 2204.98 7.88186C2205.95 7.6437 2206.72 6.95132 2208.27 5.56658L2209.17 4.7648Z" fill="white"/>
<path d="M2214.5 28C2217.29 36.8099 2224.19 43.7116 2233 46.5C2224.19 49.2884 2217.29 56.1901 2214.5 65C2211.71 56.1901 2204.81 49.2884 2196 46.5C2204.81 43.7116 2211.71 36.8099 2214.5 28Z" fill="#4E55FF"/>
<path d="M2687.17 4.7648C2689.7 2.49813 2690.97 1.3648 2692.5 1.3648C2694.03 1.3648 2695.3 2.49813 2697.83 4.7648L2698.73 5.56658C2700.28 6.95133 2701.05 7.6437 2702.02 7.88186C2702.98 8.12003 2703.99 7.86697 2706.01 7.36086L2707.17 7.06781C2710.47 6.23935 2712.12 5.82512 2713.48 6.53477C2714.83 7.24441 2715.42 8.83721 2716.62 12.0228L2717.04 13.1497C2717.77 15.0958 2718.13 16.0689 2718.87 16.7288C2719.62 17.3888 2720.63 17.633 2722.65 18.1214L2723.82 18.4043C2727.13 19.2038 2728.78 19.6036 2729.65 20.8603C2730.51 22.117 2730.3 23.8044 2729.88 27.1791L2729.73 28.3729C2729.47 30.4346 2729.34 31.4655 2729.69 32.396C2730.04 33.3265 2730.82 34.0121 2732.38 35.3832L2733.29 36.1771C2735.84 38.4215 2737.12 39.5437 2737.31 41.0596C2737.49 42.5754 2736.52 43.9708 2734.57 46.7617L2733.89 47.7488C2732.7 49.4538 2732.1 50.3063 2731.98 51.2942C2731.86 52.2822 2732.24 53.252 2732.98 55.1917L2733.41 56.3148C2734.63 59.4898 2735.24 61.0774 2734.7 62.5052C2734.16 63.933 2732.65 64.7167 2729.63 66.2842L2728.56 66.8387C2726.72 67.7963 2725.8 68.2751 2725.23 69.0941C2724.67 69.9132 2724.55 70.9451 2724.31 73.009L2724.17 74.204C2723.77 77.5824 2723.57 79.2716 2722.43 80.2842C2721.29 81.2968 2719.59 81.2893 2716.19 81.2745L2714.98 81.2692C2712.9 81.2601 2711.87 81.2555 2710.98 81.718C2710.1 82.1805 2709.52 83.0382 2708.34 84.7535L2707.66 85.7466C2705.74 88.5544 2704.78 89.9582 2703.3 90.3237C2701.82 90.6891 2700.32 89.8922 2697.31 88.2983L2696.25 87.7345C2694.41 86.7608 2693.5 86.2739 2692.5 86.2739C2691.5 86.2739 2690.59 86.7608 2688.75 87.7345L2687.69 88.2983C2684.68 89.8922 2683.18 90.6891 2681.7 90.3237C2680.22 89.9582 2679.26 88.5544 2677.34 85.7466L2676.66 84.7535C2675.48 83.0382 2674.9 82.1805 2674.02 81.718C2673.13 81.2555 2672.1 81.2601 2670.02 81.2692L2668.81 81.2745C2665.41 81.2893 2663.71 81.2968 2662.57 80.2842C2661.43 79.2716 2661.23 77.5824 2660.83 74.204L2660.69 73.009C2660.45 70.9451 2660.33 69.9132 2659.77 69.0941C2659.2 68.2751 2658.28 67.7963 2656.44 66.8387L2655.37 66.2842C2652.35 64.7167 2650.84 63.933 2650.3 62.5052C2649.76 61.0774 2650.37 59.4898 2651.59 56.3148L2652.02 55.1917C2652.76 53.252 2653.14 52.2822 2653.02 51.2942C2652.9 50.3063 2652.3 49.4538 2651.11 47.7488L2650.43 46.7616C2648.48 43.9708 2647.51 42.5754 2647.69 41.0596C2647.88 39.5437 2649.16 38.4215 2651.71 36.1771L2652.62 35.3832C2654.18 34.0121 2654.96 33.3265 2655.31 32.396C2655.66 31.4655 2655.53 30.4346 2655.27 28.3729L2655.12 27.1791C2654.7 23.8044 2654.49 22.117 2655.35 20.8603C2656.22 19.6036 2657.87 19.2038 2661.18 18.4043L2662.35 18.1214C2664.37 17.633 2665.38 17.3888 2666.13 16.7288C2666.87 16.0689 2667.23 15.0958 2667.96 13.1497L2668.38 12.0228C2669.58 8.83721 2670.17 7.24441 2671.52 6.53477C2672.88 5.82512 2674.53 6.23935 2677.83 7.06781L2678.99 7.36086C2681.01 7.86697 2682.02 8.12003 2682.98 7.88186C2683.95 7.6437 2684.72 6.95132 2686.27 5.56658L2687.17 4.7648Z" fill="white"/>
<path d="M2692.5 28C2695.29 36.8099 2702.19 43.7116 2711 46.5C2702.19 49.2884 2695.29 56.1901 2692.5 65C2689.71 56.1901 2682.81 49.2884 2674 46.5C2682.81 43.7116 2689.71 36.8099 2692.5 28Z" fill="#FF4800"/>
<path d="M3100.17 4.7648C3102.7 2.49813 3103.97 1.3648 3105.5 1.3648C3107.03 1.3648 3108.3 2.49813 3110.83 4.7648L3111.73 5.56658C3113.28 6.95133 3114.05 7.6437 3115.02 7.88186C3115.98 8.12003 3116.99 7.86697 3119.01 7.36086L3120.17 7.06781C3123.47 6.23935 3125.12 5.82512 3126.48 6.53477C3127.83 7.24441 3128.42 8.83721 3129.62 12.0228L3130.04 13.1497C3130.77 15.0958 3131.13 16.0689 3131.87 16.7288C3132.62 17.3888 3133.63 17.633 3135.65 18.1214L3136.82 18.4043C3140.13 19.2038 3141.78 19.6036 3142.65 20.8603C3143.51 22.117 3143.3 23.8044 3142.88 27.1791L3142.73 28.3729C3142.47 30.4346 3142.34 31.4655 3142.69 32.396C3143.04 33.3265 3143.82 34.0121 3145.38 35.3832L3146.29 36.1771C3148.84 38.4215 3150.12 39.5437 3150.31 41.0596C3150.49 42.5754 3149.52 43.9708 3147.57 46.7617L3146.89 47.7488C3145.7 49.4538 3145.1 50.3063 3144.98 51.2942C3144.86 52.2822 3145.24 53.252 3145.98 55.1917L3146.41 56.3148C3147.63 59.4898 3148.24 61.0774 3147.7 62.5052C3147.16 63.933 3145.65 64.7167 3142.63 66.2842L3141.56 66.8387C3139.72 67.7963 3138.8 68.2751 3138.23 69.0941C3137.67 69.9132 3137.55 70.9451 3137.31 73.009L3137.17 74.204C3136.77 77.5824 3136.57 79.2716 3135.43 80.2842C3134.29 81.2968 3132.59 81.2893 3129.19 81.2745L3127.98 81.2692C3125.9 81.2601 3124.87 81.2555 3123.98 81.718C3123.1 82.1805 3122.52 83.0382 3121.34 84.7535L3120.66 85.7466C3118.74 88.5544 3117.78 89.9582 3116.3 90.3237C3114.82 90.6891 3113.32 89.8922 3110.31 88.2983L3109.25 87.7345C3107.41 86.7608 3106.5 86.2739 3105.5 86.2739C3104.5 86.2739 3103.59 86.7608 3101.75 87.7345L3100.69 88.2983C3097.68 89.8922 3096.18 90.6891 3094.7 90.3237C3093.22 89.9582 3092.26 88.5544 3090.34 85.7466L3089.66 84.7535C3088.48 83.0382 3087.9 82.1805 3087.02 81.718C3086.13 81.2555 3085.1 81.2601 3083.02 81.2692L3081.81 81.2745C3078.41 81.2893 3076.71 81.2968 3075.57 80.2842C3074.43 79.2716 3074.23 77.5824 3073.83 74.204L3073.69 73.009C3073.45 70.9451 3073.33 69.9132 3072.77 69.0941C3072.2 68.2751 3071.28 67.7963 3069.44 66.8387L3068.37 66.2842C3065.35 64.7167 3063.84 63.933 3063.3 62.5052C3062.76 61.0774 3063.37 59.4898 3064.59 56.3148L3065.02 55.1917C3065.76 53.252 3066.14 52.2822 3066.02 51.2942C3065.9 50.3063 3065.3 49.4538 3064.11 47.7488L3063.43 46.7616C3061.48 43.9708 3060.51 42.5754 3060.69 41.0596C3060.88 39.5437 3062.16 38.4215 3064.71 36.1771L3065.62 35.3832C3067.18 34.0121 3067.96 33.3265 3068.31 32.396C3068.66 31.4655 3068.53 30.4346 3068.27 28.3729L3068.12 27.1791C3067.7 23.8044 3067.49 22.117 3068.35 20.8603C3069.22 19.6036 3070.87 19.2038 3074.18 18.4043L3075.35 18.1214C3077.37 17.633 3078.38 17.3888 3079.13 16.7288C3079.87 16.0689 3080.23 15.0958 3080.96 13.1497L3081.38 12.0228C3082.58 8.83721 3083.17 7.24441 3084.52 6.53477C3085.88 5.82512 3087.53 6.23935 3090.83 7.06781L3091.99 7.36086C3094.01 7.86697 3095.02 8.12003 3095.98 7.88186C3096.95 7.6437 3097.72 6.95132 3099.27 5.56658L3100.17 4.7648Z" fill="white"/>
<path d="M3105.5 28C3108.29 36.8099 3115.19 43.7116 3124 46.5C3115.19 49.2884 3108.29 56.1901 3105.5 65C3102.71 56.1901 3095.81 49.2884 3087 46.5C3095.81 43.7116 3102.71 36.8099 3105.5 28Z" fill="#6ED75C"/>
</svg>
