<svg width="178" height="178" viewBox="0 0 178 178" fill="none" xmlns="http://www.w3.org/2000/svg">
<path d="M66.9395 8.88278C71.2183 3.68858 73.3577 1.09148 76.3439 0.632911C79.3301 0.174346 82.1502 2.00987 87.7904 5.68091L89.7855 6.97947C93.2312 9.22216 94.954 10.3435 96.9152 10.5191C98.8763 10.6947 100.771 9.89718 104.56 8.30221L106.754 7.3787C112.957 4.76792 116.058 3.46253 118.915 4.44425C121.773 5.42597 123.417 8.3618 126.705 14.2335L127.868 16.3104C129.877 19.8975 130.881 21.6911 132.536 22.7579C134.191 23.8248 136.239 23.9991 140.335 24.3478L142.707 24.5497C149.413 25.1205 152.765 25.4058 154.839 27.6029C156.913 29.8 157.004 33.1636 157.187 39.8908L157.252 42.2703C157.363 46.3801 157.419 48.4349 158.389 50.1487C159.358 51.8624 161.091 52.9687 164.556 55.1811L166.563 56.4621C172.235 60.0837 175.071 61.8944 175.886 64.8036C176.701 67.7127 175.219 70.7335 172.254 76.775L171.206 78.9121C169.395 82.603 168.489 84.4484 168.551 86.4165C168.613 88.3845 169.633 90.1692 171.674 93.7385L172.855 95.8052C176.194 101.648 177.864 104.569 177.234 107.524C176.604 110.479 173.887 112.465 168.455 116.437L166.533 117.842C163.214 120.268 161.555 121.481 160.695 123.253C159.836 125.024 159.91 127.078 160.057 131.187L160.143 133.566C160.384 140.291 160.505 143.654 158.574 145.977C156.643 148.301 153.315 148.797 146.659 149.789L144.304 150.14C140.238 150.747 138.205 151.05 136.62 152.219C135.036 153.388 134.147 155.241 132.368 158.948L131.338 161.094C128.427 167.161 126.971 170.195 124.181 171.355C121.392 172.514 118.214 171.407 111.86 169.193L109.612 168.409C105.729 167.056 103.788 166.38 101.842 166.679C99.8959 166.978 98.2472 168.205 94.9498 170.661L93.0405 172.083C87.643 176.102 84.9442 178.111 81.935 177.842C78.9259 177.573 76.627 175.116 72.0293 170.201L70.4029 168.463C67.5941 165.461 66.1897 163.96 64.3275 163.32C62.4654 162.68 60.4349 163.001 56.3741 163.643L54.0228 164.015C47.3757 165.065 44.0521 165.59 41.5128 163.953C38.9735 162.316 38.0798 159.073 36.2925 152.585L35.6602 150.29C34.5683 146.326 34.0223 144.344 32.6708 142.912C31.3193 141.48 29.3723 140.821 25.4783 139.502L23.2237 138.738C16.8497 136.58 13.6628 135.5 12.1751 132.871C10.6874 130.241 11.4036 126.953 12.8361 120.378L13.3427 118.052C14.2179 114.035 14.6554 112.026 14.1241 110.13C13.5929 108.234 12.1754 106.746 9.34036 103.768L7.69884 102.044C3.05826 97.1707 0.737973 94.7338 0.642698 91.7141C0.547424 88.6944 2.70948 86.1161 7.0336 80.9596L8.56318 79.1356C11.2049 75.9853 12.5257 74.4102 12.9364 72.4845C13.3471 70.5588 12.7838 68.5819 11.6572 64.628L11.0049 62.3387C9.16075 55.8666 8.23869 52.6306 9.55766 49.9125C10.8766 47.1944 13.9892 45.9162 20.2144 43.3599L22.4164 42.4556C26.2195 40.8939 28.121 40.113 29.3796 38.5987C30.6382 37.0845 31.0581 35.0722 31.898 31.0477L32.3843 28.7174C33.7592 22.1297 34.4466 18.8358 36.8776 17.0421C39.3087 15.2483 42.6587 15.563 49.3589 16.1924L51.7289 16.415C55.8221 16.7996 57.8688 16.9918 59.6869 16.2359C61.505 15.48 62.812 13.8934 65.426 10.7201L66.9395 8.88278Z" fill="white"/>
</svg>
