<svg width="70" height="70" viewBox="0 0 70 70" fill="none" xmlns="http://www.w3.org/2000/svg">
<path fill-rule="evenodd" clip-rule="evenodd" d="M35 0C33.8078 0 32.8177 0.89092 30.8377 2.67276L30.1373 3.30305C28.9276 4.3916 28.3228 4.93588 27.5683 5.1231C26.8139 5.31033 26.0271 5.1114 24.4536 4.71354L23.5425 4.48317C20.9668 3.83191 19.679 3.50629 18.6233 4.06414C17.5676 4.622 17.1022 5.87411 16.1714 8.37833L15.8421 9.26415C15.2734 10.794 14.9891 11.559 14.4075 12.0777C13.8259 12.5965 13.0374 12.7885 11.4605 13.1725L10.5474 13.3948C7.96618 14.0233 6.67556 14.3376 5.99829 15.3255C5.32102 16.3134 5.48684 17.6399 5.81849 20.2928L5.9358 21.2312C6.1384 22.8519 6.23971 23.6623 5.96417 24.3938C5.68864 25.1253 5.07911 25.6642 3.86005 26.7421L3.15417 27.3662C1.15868 29.1305 0.160938 30.0126 0.0172302 31.2043C-0.126478 32.3959 0.632594 33.4929 2.15074 35.6867L2.68775 36.4628C3.61521 37.8031 4.07894 38.4732 4.1726 39.2498C4.26626 40.0264 3.97528 40.7889 3.39334 42.3137L3.05639 43.1965C2.10381 45.6925 1.62753 46.9404 2.0503 48.0628C2.47307 49.1852 3.6515 49.8013 6.00836 51.0336L6.84205 51.4694C8.28189 52.2222 9.00181 52.5986 9.44321 53.2425C9.8846 53.8863 9.97885 54.6975 10.1674 56.32L10.2765 57.2594C10.5851 59.9151 10.7393 61.243 11.6318 62.039C12.5242 62.835 13.852 62.8292 16.5076 62.8175L17.447 62.8133C19.0693 62.8062 19.8806 62.8026 20.5686 63.1662C21.2566 63.5297 21.7145 64.2039 22.6302 65.5523L23.1605 66.3331C24.6595 68.5402 25.409 69.6438 26.5666 69.9311C27.7242 70.2184 28.8972 69.5919 31.2433 68.3389L32.0731 67.8957C33.5064 67.1303 34.223 66.7476 35 66.7476C35.777 66.7476 36.4936 67.1303 37.9269 67.8957L38.7567 68.3389C41.1028 69.5919 42.2758 70.2184 43.4334 69.9311C44.591 69.6438 45.3405 68.5402 46.8395 66.3331L47.3698 65.5523C48.2855 64.2039 48.7434 63.5297 49.4314 63.1662C50.1194 62.8026 50.9306 62.8062 52.5529 62.8133L53.4924 62.8175C56.148 62.8292 57.4758 62.835 58.3682 62.039C59.2607 61.243 59.4149 59.9151 59.7235 57.2594L59.8326 56.32C60.0211 54.6975 60.1154 53.8863 60.5568 53.2425C60.9982 52.5986 61.7181 52.2222 63.1579 51.4694L63.9916 51.0336C66.3485 49.8013 67.5269 49.1852 67.9497 48.0628C68.3725 46.9404 67.8962 45.6925 66.9436 43.1965L66.6067 42.3137C66.0247 40.7889 65.7337 40.0264 65.8274 39.2498C65.9211 38.4732 66.3848 37.8031 67.3123 36.4628L67.8493 35.6867C69.3674 33.4929 70.1265 32.3959 69.9828 31.2043C69.8391 30.0126 68.8413 29.1305 66.8458 27.3662L66.14 26.7421C64.9209 25.6642 64.3114 25.1253 64.0358 24.3938C63.7603 23.6623 63.8616 22.8519 64.0642 21.2312L64.1815 20.2928C64.5132 17.6399 64.679 16.3134 64.0017 15.3255C63.3244 14.3376 62.0338 14.0233 59.4526 13.3948L58.5395 13.1725C56.9626 12.7885 56.1741 12.5965 55.5925 12.0777C55.0109 11.559 54.7266 10.794 54.1579 9.26415L53.8286 8.37834C52.8978 5.87411 52.4324 4.622 51.3767 4.06414C50.321 3.50629 49.0332 3.83191 46.4575 4.48317L45.5464 4.71354C43.9729 5.1114 43.1861 5.31033 42.4317 5.1231C41.6772 4.93588 41.0724 4.3916 39.8627 3.30305L39.1623 2.67276C37.1823 0.890919 36.1922 0 35 0ZM33.1367 28.0659V22.8426H18.406V28.0659H22.3929V48.943H29.1338V28.0659H33.1367ZM49.7248 48.943V22.8426H44.0887V34.595L40.3099 22.8426H34.6738V48.943H40.3099V37.0777L43.8165 48.943H49.7248Z" fill="black"/>
</svg>
