<svg width="2797" height="106" viewBox="0 0 2797 106" fill="none" xmlns="http://www.w3.org/2000/svg">
<path d="M127.375 2.11618L115.674 102.884H82.7591C79.7555 87.4066 77.1065 69.8133 74.8121 50.1037C73.7692 58.527 71.3287 76.1203 67.4908 102.884H34.7641L23 2.11618H48.5932L51.2839 37.2822L54.0372 71.2033C54.9967 53.6515 57.4162 30.6224 61.2959 2.11618H88.7037C89.0792 5.06224 90.0387 16.1411 91.5822 35.3527L94.4606 73.6307C95.9207 49.2739 98.3611 25.4357 101.782 2.11618H127.375Z" fill="#AEE1C6"/>
<path d="M192.828 61.1203C192.828 71.2448 192.578 78.4232 192.078 82.6556C191.619 86.8465 190.117 90.6846 187.572 94.1701C185.069 97.6556 181.669 100.332 177.372 102.199C173.076 104.066 168.07 105 162.354 105C156.931 105 152.05 104.129 147.712 102.386C143.415 100.602 139.953 97.9461 137.324 94.4191C134.696 90.8921 133.132 87.0539 132.631 82.9046C132.131 78.7552 131.88 71.4938 131.88 61.1203V43.8797C131.88 33.7552 132.11 26.5975 132.569 22.4066C133.069 18.1743 134.571 14.3154 137.074 10.8299C139.619 7.3444 143.04 4.66805 147.336 2.80083C151.633 0.93361 156.639 0 162.354 0C167.778 0 172.638 0.892116 176.934 2.67635C181.273 4.41909 184.756 7.05394 187.384 10.5809C190.013 14.1079 191.577 17.9461 192.078 22.0954C192.578 26.2448 192.828 33.5062 192.828 43.8797V61.1203ZM166.484 28.0083C166.484 23.3195 166.213 20.3319 165.671 19.0456C165.17 17.7178 164.107 17.0539 162.48 17.0539C161.103 17.0539 160.039 17.5934 159.288 18.6722C158.579 19.7095 158.225 22.8216 158.225 28.0083V75.0622C158.225 80.9129 158.454 84.5228 158.913 85.8921C159.413 87.2614 160.54 87.9461 162.292 87.9461C164.086 87.9461 165.233 87.1577 165.734 85.5809C166.234 84.0042 166.484 80.249 166.484 74.3154V28.0083Z" fill="#AEE1C6"/>
<path d="M202.715 2.11618H221.363C233.794 2.11618 242.2 2.59336 246.58 3.54772C251.002 4.50207 254.59 6.95021 257.343 10.8921C260.138 14.7925 261.536 21.0373 261.536 29.6266C261.536 37.4689 260.555 42.7386 258.595 45.4357C256.634 48.1328 252.775 49.751 247.018 50.2905C252.233 51.5768 255.737 53.2988 257.531 55.4564C259.325 57.6141 260.43 59.6058 260.847 61.4315C261.306 63.2158 261.536 68.1743 261.536 76.3071V102.884H237.069V69.3983C237.069 64.0042 236.631 60.6639 235.755 59.3776C234.921 58.0913 232.689 57.4481 229.059 57.4481V102.884H202.715V2.11618ZM229.059 19.3568V41.7635C232.021 41.7635 234.086 41.3693 235.254 40.5809C236.464 39.751 237.069 37.1162 237.069 32.6763V27.1369C237.069 23.9419 236.485 21.8465 235.317 20.8506C234.191 19.8548 232.105 19.3568 229.059 19.3568Z" fill="#AEE1C6"/>
<path d="M334.561 2.11618L319.48 47.6141L336 102.884H308.78L298.142 59.6888V102.884H271.798V2.11618H298.142V41.2656L309.844 2.11618H334.561Z" fill="#AEE1C6"/>
<path d="M593.375 2.11618L581.674 102.884H548.759C545.755 87.4066 543.106 69.8133 540.812 50.1037C539.769 58.527 537.329 76.1203 533.491 102.884H500.764L489 2.11618H514.593L517.284 37.2822L520.037 71.2033C520.997 53.6515 523.416 30.6224 527.296 2.11618H554.704C555.079 5.06224 556.039 16.1411 557.582 35.3527L560.461 73.6307C561.921 49.2739 564.361 25.4357 567.782 2.11618H593.375Z" fill="#AEE1C6"/>
<path d="M658.828 61.1203C658.828 71.2448 658.578 78.4232 658.078 82.6556C657.619 86.8465 656.117 90.6846 653.572 94.1701C651.069 97.6556 647.669 100.332 643.372 102.199C639.076 104.066 634.07 105 628.354 105C622.931 105 618.05 104.129 613.712 102.386C609.415 100.602 605.953 97.9461 603.324 94.4191C600.696 90.8921 599.132 87.0539 598.631 82.9046C598.131 78.7552 597.88 71.4938 597.88 61.1203V43.8797C597.88 33.7552 598.11 26.5975 598.569 22.4066C599.069 18.1743 600.571 14.3154 603.074 10.8299C605.619 7.3444 609.04 4.66805 613.336 2.80083C617.633 0.93361 622.639 0 628.354 0C633.778 0 638.638 0.892116 642.934 2.67635C647.273 4.41909 650.756 7.05394 653.384 10.5809C656.013 14.1079 657.577 17.9461 658.078 22.0954C658.578 26.2448 658.828 33.5062 658.828 43.8797V61.1203ZM632.484 28.0083C632.484 23.3195 632.213 20.3319 631.671 19.0456C631.17 17.7178 630.107 17.0539 628.48 17.0539C627.103 17.0539 626.039 17.5934 625.288 18.6722C624.579 19.7095 624.225 22.8216 624.225 28.0083V75.0622C624.225 80.9129 624.454 84.5228 624.913 85.8921C625.413 87.2614 626.54 87.9461 628.292 87.9461C630.086 87.9461 631.233 87.1577 631.734 85.5809C632.234 84.0042 632.484 80.249 632.484 74.3154V28.0083Z" fill="#AEE1C6"/>
<path d="M668.715 2.11618H687.363C699.794 2.11618 708.2 2.59336 712.58 3.54772C717.002 4.50207 720.59 6.95021 723.343 10.8921C726.138 14.7925 727.536 21.0373 727.536 29.6266C727.536 37.4689 726.555 42.7386 724.595 45.4357C722.634 48.1328 718.775 49.751 713.018 50.2905C718.233 51.5768 721.737 53.2988 723.531 55.4564C725.325 57.6141 726.43 59.6058 726.847 61.4315C727.306 63.2158 727.536 68.1743 727.536 76.3071V102.884H703.069V69.3983C703.069 64.0042 702.631 60.6639 701.755 59.3776C700.921 58.0913 698.689 57.4481 695.059 57.4481V102.884H668.715V2.11618ZM695.059 19.3568V41.7635C698.021 41.7635 700.086 41.3693 701.254 40.5809C702.464 39.751 703.069 37.1162 703.069 32.6763V27.1369C703.069 23.9419 702.485 21.8465 701.317 20.8506C700.191 19.8548 698.105 19.3568 695.059 19.3568Z" fill="#AEE1C6"/>
<path d="M800.561 2.11618L785.48 47.6141L802 102.884H774.78L764.142 59.6888V102.884H737.798V2.11618H764.142V41.2656L775.844 2.11618H800.561Z" fill="#AEE1C6"/>
<path d="M1059.38 2.11618L1047.67 102.884H1014.76C1011.76 87.4066 1009.11 69.8133 1006.81 50.1037C1005.77 58.527 1003.33 76.1203 999.491 102.884H966.764L955 2.11618H980.593L983.284 37.2822L986.037 71.2033C986.997 53.6515 989.416 30.6224 993.296 2.11618H1020.7C1021.08 5.06224 1022.04 16.1411 1023.58 35.3527L1026.46 73.6307C1027.92 49.2739 1030.36 25.4357 1033.78 2.11618H1059.38Z" fill="#AEE1C6"/>
<path d="M1124.83 61.1203C1124.83 71.2448 1124.58 78.4232 1124.08 82.6556C1123.62 86.8465 1122.12 90.6846 1119.57 94.1701C1117.07 97.6556 1113.67 100.332 1109.37 102.199C1105.08 104.066 1100.07 105 1094.35 105C1088.93 105 1084.05 104.129 1079.71 102.386C1075.42 100.602 1071.95 97.9461 1069.32 94.4191C1066.7 90.8921 1065.13 87.0539 1064.63 82.9046C1064.13 78.7552 1063.88 71.4938 1063.88 61.1203V43.8797C1063.88 33.7552 1064.11 26.5975 1064.57 22.4066C1065.07 18.1743 1066.57 14.3154 1069.07 10.8299C1071.62 7.3444 1075.04 4.66805 1079.34 2.80083C1083.63 0.93361 1088.64 0 1094.35 0C1099.78 0 1104.64 0.892116 1108.93 2.67635C1113.27 4.41909 1116.76 7.05394 1119.38 10.5809C1122.01 14.1079 1123.58 17.9461 1124.08 22.0954C1124.58 26.2448 1124.83 33.5062 1124.83 43.8797V61.1203ZM1098.48 28.0083C1098.48 23.3195 1098.21 20.3319 1097.67 19.0456C1097.17 17.7178 1096.11 17.0539 1094.48 17.0539C1093.1 17.0539 1092.04 17.5934 1091.29 18.6722C1090.58 19.7095 1090.22 22.8216 1090.22 28.0083V75.0622C1090.22 80.9129 1090.45 84.5228 1090.91 85.8921C1091.41 87.2614 1092.54 87.9461 1094.29 87.9461C1096.09 87.9461 1097.23 87.1577 1097.73 85.5809C1098.23 84.0042 1098.48 80.249 1098.48 74.3154V28.0083Z" fill="#AEE1C6"/>
<path d="M1134.72 2.11618H1153.36C1165.79 2.11618 1174.2 2.59336 1178.58 3.54772C1183 4.50207 1186.59 6.95021 1189.34 10.8921C1192.14 14.7925 1193.54 21.0373 1193.54 29.6266C1193.54 37.4689 1192.56 42.7386 1190.59 45.4357C1188.63 48.1328 1184.78 49.751 1179.02 50.2905C1184.23 51.5768 1187.74 53.2988 1189.53 55.4564C1191.32 57.6141 1192.43 59.6058 1192.85 61.4315C1193.31 63.2158 1193.54 68.1743 1193.54 76.3071V102.884H1169.07V69.3983C1169.07 64.0042 1168.63 60.6639 1167.75 59.3776C1166.92 58.0913 1164.69 57.4481 1161.06 57.4481V102.884H1134.72V2.11618ZM1161.06 19.3568V41.7635C1164.02 41.7635 1166.09 41.3693 1167.25 40.5809C1168.46 39.751 1169.07 37.1162 1169.07 32.6763V27.1369C1169.07 23.9419 1168.48 21.8465 1167.32 20.8506C1166.19 19.8548 1164.1 19.3568 1161.06 19.3568Z" fill="#AEE1C6"/>
<path d="M1266.56 2.11618L1251.48 47.6141L1268 102.884H1240.78L1230.14 59.6888V102.884H1203.8V2.11618H1230.14V41.2656L1241.84 2.11618H1266.56Z" fill="#AEE1C6"/>
<path d="M1525.38 2.11618L1513.67 102.884H1480.76C1477.76 87.4066 1475.11 69.8133 1472.81 50.1037C1471.77 58.527 1469.33 76.1203 1465.49 102.884H1432.76L1421 2.11618H1446.59L1449.28 37.2822L1452.04 71.2033C1453 53.6515 1455.42 30.6224 1459.3 2.11618H1486.7C1487.08 5.06224 1488.04 16.1411 1489.58 35.3527L1492.46 73.6307C1493.92 49.2739 1496.36 25.4357 1499.78 2.11618H1525.38Z" fill="#AEE1C6"/>
<path d="M1590.83 61.1203C1590.83 71.2448 1590.58 78.4232 1590.08 82.6556C1589.62 86.8465 1588.12 90.6846 1585.57 94.1701C1583.07 97.6556 1579.67 100.332 1575.37 102.199C1571.08 104.066 1566.07 105 1560.35 105C1554.93 105 1550.05 104.129 1545.71 102.386C1541.42 100.602 1537.95 97.9461 1535.32 94.4191C1532.7 90.8921 1531.13 87.0539 1530.63 82.9046C1530.13 78.7552 1529.88 71.4938 1529.88 61.1203V43.8797C1529.88 33.7552 1530.11 26.5975 1530.57 22.4066C1531.07 18.1743 1532.57 14.3154 1535.07 10.8299C1537.62 7.3444 1541.04 4.66805 1545.34 2.80083C1549.63 0.93361 1554.64 0 1560.35 0C1565.78 0 1570.64 0.892116 1574.93 2.67635C1579.27 4.41909 1582.76 7.05394 1585.38 10.5809C1588.01 14.1079 1589.58 17.9461 1590.08 22.0954C1590.58 26.2448 1590.83 33.5062 1590.83 43.8797V61.1203ZM1564.48 28.0083C1564.48 23.3195 1564.21 20.3319 1563.67 19.0456C1563.17 17.7178 1562.11 17.0539 1560.48 17.0539C1559.1 17.0539 1558.04 17.5934 1557.29 18.6722C1556.58 19.7095 1556.22 22.8216 1556.22 28.0083V75.0622C1556.22 80.9129 1556.45 84.5228 1556.91 85.8921C1557.41 87.2614 1558.54 87.9461 1560.29 87.9461C1562.09 87.9461 1563.23 87.1577 1563.73 85.5809C1564.23 84.0042 1564.48 80.249 1564.48 74.3154V28.0083Z" fill="#AEE1C6"/>
<path d="M1600.72 2.11618H1619.36C1631.79 2.11618 1640.2 2.59336 1644.58 3.54772C1649 4.50207 1652.59 6.95021 1655.34 10.8921C1658.14 14.7925 1659.54 21.0373 1659.54 29.6266C1659.54 37.4689 1658.56 42.7386 1656.59 45.4357C1654.63 48.1328 1650.78 49.751 1645.02 50.2905C1650.23 51.5768 1653.74 53.2988 1655.53 55.4564C1657.32 57.6141 1658.43 59.6058 1658.85 61.4315C1659.31 63.2158 1659.54 68.1743 1659.54 76.3071V102.884H1635.07V69.3983C1635.07 64.0042 1634.63 60.6639 1633.75 59.3776C1632.92 58.0913 1630.69 57.4481 1627.06 57.4481V102.884H1600.72V2.11618ZM1627.06 19.3568V41.7635C1630.02 41.7635 1632.09 41.3693 1633.25 40.5809C1634.46 39.751 1635.07 37.1162 1635.07 32.6763V27.1369C1635.07 23.9419 1634.48 21.8465 1633.32 20.8506C1632.19 19.8548 1630.1 19.3568 1627.06 19.3568Z" fill="#AEE1C6"/>
<path d="M1732.56 2.11618L1717.48 47.6141L1734 102.884H1706.78L1696.14 59.6888V102.884H1669.8V2.11618H1696.14V41.2656L1707.84 2.11618H1732.56Z" fill="#AEE1C6"/>
<path d="M1991.38 2.11618L1979.67 102.884H1946.76C1943.76 87.4066 1941.11 69.8133 1938.81 50.1037C1937.77 58.527 1935.33 76.1203 1931.49 102.884H1898.76L1887 2.11618H1912.59L1915.28 37.2822L1918.04 71.2033C1919 53.6515 1921.42 30.6224 1925.3 2.11618H1952.7C1953.08 5.06224 1954.04 16.1411 1955.58 35.3527L1958.46 73.6307C1959.92 49.2739 1962.36 25.4357 1965.78 2.11618H1991.38Z" fill="#AEE1C6"/>
<path d="M2056.83 61.1203C2056.83 71.2448 2056.58 78.4232 2056.08 82.6556C2055.62 86.8465 2054.12 90.6846 2051.57 94.1701C2049.07 97.6556 2045.67 100.332 2041.37 102.199C2037.08 104.066 2032.07 105 2026.35 105C2020.93 105 2016.05 104.129 2011.71 102.386C2007.42 100.602 2003.95 97.9461 2001.32 94.4191C1998.7 90.8921 1997.13 87.0539 1996.63 82.9046C1996.13 78.7552 1995.88 71.4938 1995.88 61.1203V43.8797C1995.88 33.7552 1996.11 26.5975 1996.57 22.4066C1997.07 18.1743 1998.57 14.3154 2001.07 10.8299C2003.62 7.3444 2007.04 4.66805 2011.34 2.80083C2015.63 0.93361 2020.64 0 2026.35 0C2031.78 0 2036.64 0.892116 2040.93 2.67635C2045.27 4.41909 2048.76 7.05394 2051.38 10.5809C2054.01 14.1079 2055.58 17.9461 2056.08 22.0954C2056.58 26.2448 2056.83 33.5062 2056.83 43.8797V61.1203ZM2030.48 28.0083C2030.48 23.3195 2030.21 20.3319 2029.67 19.0456C2029.17 17.7178 2028.11 17.0539 2026.48 17.0539C2025.1 17.0539 2024.04 17.5934 2023.29 18.6722C2022.58 19.7095 2022.22 22.8216 2022.22 28.0083V75.0622C2022.22 80.9129 2022.45 84.5228 2022.91 85.8921C2023.41 87.2614 2024.54 87.9461 2026.29 87.9461C2028.09 87.9461 2029.23 87.1577 2029.73 85.5809C2030.23 84.0042 2030.48 80.249 2030.48 74.3154V28.0083Z" fill="#AEE1C6"/>
<path d="M2066.72 2.11618H2085.36C2097.79 2.11618 2106.2 2.59336 2110.58 3.54772C2115 4.50207 2118.59 6.95021 2121.34 10.8921C2124.14 14.7925 2125.54 21.0373 2125.54 29.6266C2125.54 37.4689 2124.56 42.7386 2122.59 45.4357C2120.63 48.1328 2116.78 49.751 2111.02 50.2905C2116.23 51.5768 2119.74 53.2988 2121.53 55.4564C2123.32 57.6141 2124.43 59.6058 2124.85 61.4315C2125.31 63.2158 2125.54 68.1743 2125.54 76.3071V102.884H2101.07V69.3983C2101.07 64.0042 2100.63 60.6639 2099.75 59.3776C2098.92 58.0913 2096.69 57.4481 2093.06 57.4481V102.884H2066.72V2.11618ZM2093.06 19.3568V41.7635C2096.02 41.7635 2098.09 41.3693 2099.25 40.5809C2100.46 39.751 2101.07 37.1162 2101.07 32.6763V27.1369C2101.07 23.9419 2100.48 21.8465 2099.32 20.8506C2098.19 19.8548 2096.1 19.3568 2093.06 19.3568Z" fill="#AEE1C6"/>
<path d="M2198.56 2.11618L2183.48 47.6141L2200 102.884H2172.78L2162.14 59.6888V102.884H2135.8V2.11618H2162.14V41.2656L2173.84 2.11618H2198.56Z" fill="#AEE1C6"/>
<path d="M2457.38 2.11618L2445.67 102.884H2412.76C2409.76 87.4066 2407.11 69.8133 2404.81 50.1037C2403.77 58.527 2401.33 76.1203 2397.49 102.884H2364.76L2353 2.11618H2378.59L2381.28 37.2822L2384.04 71.2033C2385 53.6515 2387.42 30.6224 2391.3 2.11618H2418.7C2419.08 5.06224 2420.04 16.1411 2421.58 35.3527L2424.46 73.6307C2425.92 49.2739 2428.36 25.4357 2431.78 2.11618H2457.38Z" fill="#AEE1C6"/>
<path d="M2522.83 61.1203C2522.83 71.2448 2522.58 78.4232 2522.08 82.6556C2521.62 86.8465 2520.12 90.6846 2517.57 94.1701C2515.07 97.6556 2511.67 100.332 2507.37 102.199C2503.08 104.066 2498.07 105 2492.35 105C2486.93 105 2482.05 104.129 2477.71 102.386C2473.42 100.602 2469.95 97.9461 2467.32 94.4191C2464.7 90.8921 2463.13 87.0539 2462.63 82.9046C2462.13 78.7552 2461.88 71.4938 2461.88 61.1203V43.8797C2461.88 33.7552 2462.11 26.5975 2462.57 22.4066C2463.07 18.1743 2464.57 14.3154 2467.07 10.8299C2469.62 7.3444 2473.04 4.66805 2477.34 2.80083C2481.63 0.93361 2486.64 0 2492.35 0C2497.78 0 2502.64 0.892116 2506.93 2.67635C2511.27 4.41909 2514.76 7.05394 2517.38 10.5809C2520.01 14.1079 2521.58 17.9461 2522.08 22.0954C2522.58 26.2448 2522.83 33.5062 2522.83 43.8797V61.1203ZM2496.48 28.0083C2496.48 23.3195 2496.21 20.3319 2495.67 19.0456C2495.17 17.7178 2494.11 17.0539 2492.48 17.0539C2491.1 17.0539 2490.04 17.5934 2489.29 18.6722C2488.58 19.7095 2488.22 22.8216 2488.22 28.0083V75.0622C2488.22 80.9129 2488.45 84.5228 2488.91 85.8921C2489.41 87.2614 2490.54 87.9461 2492.29 87.9461C2494.09 87.9461 2495.23 87.1577 2495.73 85.5809C2496.23 84.0042 2496.48 80.249 2496.48 74.3154V28.0083Z" fill="#AEE1C6"/>
<path d="M2532.72 2.11618H2551.36C2563.79 2.11618 2572.2 2.59336 2576.58 3.54772C2581 4.50207 2584.59 6.95021 2587.34 10.8921C2590.14 14.7925 2591.54 21.0373 2591.54 29.6266C2591.54 37.4689 2590.56 42.7386 2588.59 45.4357C2586.63 48.1328 2582.78 49.751 2577.02 50.2905C2582.23 51.5768 2585.74 53.2988 2587.53 55.4564C2589.32 57.6141 2590.43 59.6058 2590.85 61.4315C2591.31 63.2158 2591.54 68.1743 2591.54 76.3071V102.884H2567.07V69.3983C2567.07 64.0042 2566.63 60.6639 2565.75 59.3776C2564.92 58.0913 2562.69 57.4481 2559.06 57.4481V102.884H2532.72V2.11618ZM2559.06 19.3568V41.7635C2562.02 41.7635 2564.09 41.3693 2565.25 40.5809C2566.46 39.751 2567.07 37.1162 2567.07 32.6763V27.1369C2567.07 23.9419 2566.48 21.8465 2565.32 20.8506C2564.19 19.8548 2562.1 19.3568 2559.06 19.3568Z" fill="#AEE1C6"/>
<path d="M2664.56 2.11618L2649.48 47.6141L2666 102.884H2638.78L2628.14 59.6888V102.884H2601.8V2.11618H2628.14V41.2656L2639.84 2.11618H2664.56Z" fill="#AEE1C6"/>
<circle cx="412.5" cy="52.5" r="31.5" fill="#AEE1C6"/>
<circle cx="878.5" cy="52.5" r="31.5" fill="#AEE1C6"/>
<circle cx="1344.5" cy="52.5" r="31.5" fill="#AEE1C6"/>
<circle cx="1810.5" cy="52.5" r="31.5" fill="#AEE1C6"/>
<circle cx="2276.5" cy="52.5" r="31.5" fill="#AEE1C6"/>
<circle cx="2742.5" cy="52.5" r="31.5" fill="#AEE1C6"/>
</svg>
